<svg width="64" height="64" viewBox="0 0 64 64" fill="none" xmlns="http://www.w3.org/2000/svg">
<circle cx="32" cy="32" r="24" fill="white"/>
<path d="M28.2852 2.9043C23.0063 3.59012 18.1729 5.61327 13.9452 8.88231C12.6083 9.92246 10.3345 12.1628 9.22616 13.5344C6.07251 17.4435 3.9815 22.0614 3.09025 27.0906C2.77031 28.8738 2.64462 33.1601 2.8503 35.1147C3.34163 39.6753 4.92988 44.1445 7.39796 47.9394C8.51773 49.6539 9.50039 50.8769 11.0315 52.4429C15.8191 57.3579 21.8636 60.3297 28.7422 61.1298C30.2734 61.3127 33.9983 61.2784 35.6551 61.0841C44.202 60.0211 51.8348 55.2318 56.5995 47.9394C58.999 44.2703 60.5301 40.0525 61.0786 35.6519C61.3071 33.8002 61.3071 30.1997 61.0786 28.3365C60.0274 19.8553 55.2512 12.1971 48.0527 7.46496C44.2934 4.99604 40.1114 3.46439 35.6551 2.9043C33.9183 2.69856 29.9306 2.69856 28.2852 2.9043ZM40.5913 13.603C42.111 13.923 43.7564 15.1461 44.4762 16.5177C45.1732 17.8093 45.139 16.9749 45.139 34.2002V49.9511L44.8533 50.2254C44.2477 50.8426 44.4419 51.0141 37.9747 44.5446L31.9987 38.5666L26.0228 44.5446C19.5555 51.0141 19.7498 50.8426 19.1442 50.2254L18.8585 49.9511V34.2002C18.8585 20.404 18.8814 18.358 19.0299 17.7636C19.5441 15.809 21.2695 14.1173 23.2348 13.6373C24.0346 13.443 39.6886 13.4201 40.5913 13.603Z" fill="#336DFF"/>
</svg>
