<svg width="64" height="64" viewBox="0 0 64 64" fill="none" xmlns="http://www.w3.org/2000/svg">
<circle cx="32" cy="32" r="13" fill="#336DFF"/>
<path d="M30.2921 2.94493C29.3658 3.27658 29.0113 3.53961 26.7698 5.51806L24.6884 7.35928L20.9945 7.07338C16.8318 6.7646 16.3629 6.78747 15.1049 7.40502C14.19 7.85103 13.2637 8.77736 12.8634 9.64651C12.6919 10.0125 12.0972 11.7508 11.5483 13.5005L10.5419 16.6912L7.74006 18.3494C4.58368 20.2249 4.12624 20.568 3.56587 21.3914C2.89113 22.3864 2.67385 23.2441 2.73103 24.5935L2.78821 25.76L4.06906 28.8592L5.3499 31.9699L4.05762 35.0919L2.76534 38.2254V39.6092C2.76534 40.9587 2.77677 40.993 3.18847 41.8392C3.8289 43.1315 4.33209 43.5432 7.9116 45.6932L11.1023 47.6031L11.8228 50.6336C12.2345 52.3491 12.6805 53.9387 12.852 54.2932C13.2751 55.1623 14.3044 56.1687 15.1964 56.5804C16.443 57.1522 16.969 57.1865 21.006 56.8663C24.4826 56.5919 24.5969 56.5919 24.8257 56.7863C26.9528 58.6732 28.9312 60.3544 29.2514 60.5602C30.7724 61.4865 33.0482 61.5208 34.6036 60.6174C35.0038 60.3887 36.7764 58.8905 39.1437 56.7863C39.3724 56.5804 39.4753 56.5804 43.0091 56.8663C47.1376 57.198 47.5607 57.1751 48.8759 56.5232C49.8136 56.0544 50.6713 55.1967 51.1288 54.2589C51.2889 53.9387 51.7463 52.3033 52.1466 50.6336L52.8785 47.6031L55.8976 45.8076C59.4543 43.6805 60.1405 43.1201 60.7694 41.8621C61.1468 41.0959 61.204 40.89 61.2383 39.9294C61.2726 39.3347 61.2269 38.6257 61.1583 38.3512C61.0897 38.0653 60.4835 36.5214 59.8202 34.8975L58.608 31.9699L59.9003 28.8592L61.1926 25.76L61.2383 24.5935C61.2955 23.1755 61.0439 22.2834 60.3006 21.2656C59.6716 20.4193 59.2942 20.1563 55.829 18.0978C54.2623 17.1715 52.9471 16.3938 52.9242 16.371C52.9014 16.3481 52.5583 14.9872 52.158 13.3404C51.7578 11.6821 51.3003 10.0582 51.1402 9.72656C50.7514 8.88028 49.7221 7.81672 48.853 7.39359C47.6179 6.78747 47.1261 6.7646 42.9748 7.07338L39.2809 7.35928L37.1996 5.51806C34.9238 3.5053 34.6036 3.27658 33.6315 2.94493C32.7623 2.63615 31.1498 2.64759 30.2921 2.94493ZM33.6658 13.2832C36.6163 13.4547 40.173 14.7813 42.9634 16.7598C44.3471 17.7433 46.2341 19.6303 47.2176 21.014C48.2354 22.4435 49.3562 24.6507 49.8708 26.2632C50.4883 28.1616 50.7399 29.8313 50.7399 31.9927C50.7399 35.1262 50.1338 37.6994 48.7272 40.4555C47.7551 42.3539 46.7144 43.7948 45.2506 45.2586C41.6825 48.8267 37.0166 50.7594 31.9847 50.7594C28.0163 50.7594 24.2767 49.5586 21.006 47.2257C19.6222 46.2422 17.7352 44.3552 16.7517 42.9714C15.1278 40.6956 13.9156 37.7908 13.4581 35.1148C13.1494 33.3193 13.1494 30.6661 13.4581 28.8707C13.9156 26.1946 15.1278 23.2898 16.7517 21.014C19.8852 16.5997 25.2717 13.6034 30.6695 13.2489C31.3671 13.2031 32.0876 13.1803 32.2706 13.2031C32.465 13.2146 33.0825 13.2603 33.6658 13.2832Z" fill="#336DFF"/>
<path d="M29.2514 16.7378C22.9844 17.7899 17.7467 23.0734 16.7174 29.3633C16.5001 30.7585 16.5001 33.2287 16.7174 34.6239C17.7467 40.971 23.0073 46.2316 29.3543 47.2609C30.7496 47.4781 33.2198 47.4781 34.615 47.2609C40.962 46.2316 46.2227 40.971 47.2519 34.6239C47.4692 33.2287 47.4692 30.7585 47.2519 29.3633C46.2227 23.0162 40.962 17.7556 34.615 16.7264C33.2769 16.5091 30.5666 16.5205 29.2514 16.7378ZM41.4423 25.475C41.6482 25.5894 41.8884 25.8524 41.9913 26.0354C42.1971 26.4357 42.22 27.2133 42.037 27.5678C41.854 27.9223 31.4243 38.375 31.0469 38.5808C30.6466 38.7867 29.8918 38.7867 29.4916 38.5808C29.1142 38.375 22.1153 31.3532 21.9323 30.9987C21.7493 30.6442 21.7722 29.8665 21.978 29.4662C22.3326 28.7915 23.4419 28.4484 24.128 28.8029C24.2653 28.8715 25.7062 30.2439 27.3301 31.8564L30.2692 34.7955L34.9352 30.1524C37.4969 27.5907 39.6926 25.4407 39.8184 25.3721C40.1958 25.1777 41.0421 25.2234 41.4423 25.475Z" fill="white"/>
</svg>
