<svg width="64" height="64" viewBox="0 0 64 64" fill="none" xmlns="http://www.w3.org/2000/svg">
<path d="M13.1725 4.45283V6.14385L14.2465 6.20098C15.4576 6.26953 15.9261 6.4752 16.3146 7.11504C16.5317 7.48066 16.5431 7.75488 16.6116 13.4335C16.6802 19.8891 16.7373 20.6774 17.3886 23.2482C18.474 27.5101 20.1079 29.5896 24.3126 32.0347C25.4781 32.7088 26.1407 33.2687 26.4607 33.8742C26.6892 34.3084 26.712 34.4912 26.712 36.2851C26.7006 37.9646 26.6663 38.3988 26.4035 39.4957C25.7751 42.1579 24.9525 43.4833 23.7413 43.7804C23.5585 43.8261 27.2833 43.8604 32.025 43.8604C36.7667 43.8604 40.503 43.8261 40.3087 43.7804C39.1776 43.5062 38.3892 42.3293 37.795 40.0784C37.3837 38.5245 37.2466 37.3248 37.3037 35.748C37.3723 33.6 37.5894 33.3144 40.2516 31.7262C42.1254 30.6179 43.2451 29.7152 44.1249 28.6298C45.3246 27.133 46.0787 25.5334 46.6614 23.2482C47.3127 20.6774 47.3698 19.8891 47.4384 13.4335C47.507 7.5835 47.507 7.48066 47.7583 7.09219C48.1468 6.45234 48.5924 6.26953 49.815 6.20098L50.8776 6.14385V4.45283V2.75039H32.025H13.1725V4.45283Z" fill="#336DFF"/>
<path d="M6.33995 13.2272C6.38566 16.8492 6.38566 16.8606 6.73986 18.1746C7.79103 22.1393 10.1562 25.4414 13.4582 27.6008C14.4066 28.2178 16.0176 29.0748 16.0976 28.9948C16.1204 28.9719 15.9605 28.6292 15.7548 28.2178C15.2178 27.2238 14.7265 25.967 14.3609 24.6758C14.0752 23.6589 14.0181 23.5561 13.3097 22.8363C11.0931 20.5626 10.0076 17.9461 9.79054 14.3127L9.72198 13.033H11.4473H13.1726V11.3191V9.60523H9.73341H6.29425L6.33995 13.2272Z" fill="#C8D1EA"/>
<path d="M50.8776 11.3189V13.0327H52.6028H54.3281L54.2596 14.3124C54.0425 17.923 53.0256 20.4138 50.809 22.7446C50.032 23.5673 49.9863 23.6473 49.6893 24.6756C49.3236 25.9667 48.8323 27.2235 48.2953 28.2176C48.0897 28.6289 47.9297 28.9717 47.9411 28.9945C47.964 29.006 48.3639 28.846 48.8323 28.6175C50.2834 27.9205 51.883 26.7779 53.1056 25.544C55.2079 23.453 56.579 21.0079 57.356 18.0144C57.6416 16.9175 57.653 16.689 57.6987 13.227L57.7559 9.60499H54.3167H50.8776V11.3189Z" fill="#C8D1EA"/>
<path d="M20.028 54.2803V61.25H32.025H44.0221V54.2803V47.3105H32.025H20.028V54.2803Z" fill="#336DFF"/>
</svg>
