<svg width="64" height="64" viewBox="0 0 64 64" fill="none" xmlns="http://www.w3.org/2000/svg">
<path d="M14.2062 2.77137C11.1837 3.01513 8.405 4.38012 6.18687 6.72012C3.88344 9.14544 2.75 11.9851 2.75 15.3489C2.75 17.0795 2.95719 18.3592 3.50562 19.9923C4.88281 24.1117 8.42937 29.3157 13.1703 34.1664C14.8644 35.9092 14.8766 35.9092 15.425 35.9092C15.9734 35.9092 15.9856 35.9092 17.6797 34.1664C22.445 29.2914 25.9794 24.0873 27.3566 19.9557C27.9903 18.0423 28.1366 16.9698 28.0634 14.8857C28.0025 12.8992 27.7466 11.7414 27.0031 10.1082C26.1378 8.207 24.2975 6.03762 22.5181 4.84325C20.8972 3.74637 18.6181 2.92981 16.8875 2.80794C16.3878 2.77137 15.8394 2.73481 15.6687 2.71044C15.4981 2.69825 14.84 2.72262 14.2062 2.77137ZM16.9484 8.87731C18.7278 9.25512 20.3731 10.5226 21.3725 12.2654C22.2012 13.7036 22.3719 15.8973 21.7869 17.5792C20.5559 21.1014 16.9119 22.9539 13.4141 21.8448C10.5866 20.9429 8.72187 18.3957 8.72187 15.4586C8.72187 13.1429 9.74562 11.1807 11.5981 9.91325C13.2556 8.792 14.9741 8.45075 16.9484 8.87731Z" fill="#C8D1EA"/>
<path d="M29.5625 18.8713C28.3316 23.8681 24.4925 29.8034 18.6547 35.7509C17.0216 37.4206 16.4975 37.7375 15.425 37.7375C14.5353 37.7375 13.926 37.445 12.9631 36.5309C11.8541 35.495 9.44096 32.8381 8.0394 31.0831C7.39346 30.2909 6.82065 29.5841 6.75971 29.5109C6.69877 29.45 6.65002 33.0575 6.65002 38.5053V47.6094H10.3185H13.9747L14.3647 47.3169C14.9863 46.8538 16.1806 46.2931 17.1556 46.025C19.4225 45.3913 22.445 45.9397 24.2853 47.3169L24.6753 47.6094H33.2797H41.8841L41.8475 34.1056C41.811 19.0784 41.8719 20.1631 40.9822 19.2247C40.1535 18.3594 40.19 18.3594 34.6569 18.3594H29.6966L29.5625 18.8713Z" fill="#336DFF"/>
<path d="M43.9438 26.4031C43.7 26.6469 43.7 26.7688 43.7 37.1281V47.6094H44.4434C45.0284 47.6094 45.26 47.5484 45.5647 47.3169C47.405 45.9397 50.4275 45.3913 52.6944 46.025C53.6694 46.2931 54.8638 46.8538 55.4853 47.3169C55.8631 47.6094 55.9119 47.6094 58.5566 47.6094H61.25V43.0025V38.4078L59.69 33.2159C58.8003 30.2666 57.9959 27.7925 57.8131 27.4756C57.6303 27.1831 57.2525 26.7688 56.9722 26.5738L56.4603 26.2203L50.33 26.1838C44.3094 26.1594 44.1875 26.1594 43.9438 26.4031ZM54.425 30.3763C54.5956 30.5469 55.0709 31.9363 55.8875 34.6663C56.5578 36.8844 57.1063 38.7856 57.1063 38.8709C57.1063 38.9684 56.9966 39.1878 56.8503 39.3706L56.6066 39.6875H53.8522H51.11L50.1106 38.7125L49.1113 37.7375H47.6853C46.43 37.7375 46.235 37.7131 46.0278 37.5059C45.6622 37.1403 45.6256 36.7138 45.6744 33.5816C45.7109 30.5347 45.7353 30.4128 46.3203 30.1691C46.4544 30.1203 48.2825 30.0838 50.3666 30.0959C54.035 30.1203 54.1813 30.1325 54.425 30.3763ZM49.1966 42.0884C49.5256 42.4175 49.55 43.0025 49.2453 43.3438C49.0503 43.5631 48.8675 43.5875 47.6 43.5875C46.3325 43.5875 46.1497 43.5631 45.9547 43.3438C45.6866 43.0513 45.6622 42.4663 45.8938 42.1738C46.1863 41.8325 46.5275 41.7594 47.7463 41.7959C48.7822 41.8203 48.965 41.8569 49.1966 42.0884Z" fill="#336DFF"/>
<path d="M17.375 47.8407C15.0837 48.572 13.3653 50.3148 12.695 52.5938C12.4512 53.4348 12.439 55.2507 12.6828 56.177C13.2922 58.5048 15.2422 60.467 17.57 61.0763C18.484 61.3079 20.1659 61.3079 21.08 61.0763C23.4078 60.467 25.3578 58.5048 25.9672 56.177C26.2597 55.0557 26.2109 53.3738 25.8453 52.277C25.1384 50.1807 23.6637 48.6816 21.5918 47.9504C20.7509 47.6579 20.4218 47.6091 19.325 47.6213C18.4475 47.6213 17.8381 47.6945 17.375 47.8407ZM20.5437 51.887C23.2006 53.2276 22.2865 57.2373 19.325 57.2373C17.7406 57.2373 16.534 56.0185 16.5218 54.3976C16.5218 52.3379 18.7278 50.9607 20.5437 51.887Z" fill="#336DFF"/>
<path d="M48.575 47.8407C46.2837 48.572 44.5653 50.3148 43.895 52.5938C43.6512 53.4348 43.639 55.2507 43.8828 56.177C44.4921 58.5048 46.4421 60.467 48.77 61.0763C49.684 61.3079 51.3659 61.3079 52.28 61.0763C54.5712 60.4791 56.4603 58.6145 57.155 56.2745C57.2768 55.8479 57.35 55.1654 57.35 54.3854C57.35 53.3495 57.289 52.996 57.0087 52.1673C56.2896 50.1198 54.8393 48.6695 52.7918 47.9504C51.9509 47.6579 51.6218 47.6091 50.525 47.6213C49.6475 47.6213 49.0381 47.6945 48.575 47.8407ZM51.7437 51.887C54.4006 53.2276 53.4865 57.2373 50.525 57.2373C48.9406 57.2373 47.734 56.0185 47.7218 54.3976C47.7218 52.3379 49.9278 50.9607 51.7437 51.887Z" fill="#336DFF"/>
<path d="M6.65 52.2405C6.65 55.653 6.47937 55.4093 8.90468 55.4093H10.6719V54.3368C10.6719 52.984 11.0009 51.6677 11.6225 50.4612L12.0978 49.5593H9.38H6.65V52.2405Z" fill="#336DFF"/>
<path d="M26.8934 50.1807C27.5515 51.3142 27.8928 52.5207 27.9537 54.032L28.0146 55.4092H34.9371H41.8718V54.3367C41.8718 52.9839 42.2009 51.6676 42.8225 50.4611L43.2978 49.5592H34.9128H26.5278L26.8934 50.1807Z" fill="#336DFF"/>
<path d="M58.0934 50.1807C58.7515 51.3142 59.0928 52.5207 59.1537 54.032L59.2146 55.4092H59.9824C61.2621 55.4092 61.2499 55.4457 61.2499 52.2404V49.5592H59.4828H57.7278L58.0934 50.1807Z" fill="#336DFF"/>
</svg>
