<svg width="64" height="64" viewBox="0 0 64 64" fill="none" xmlns="http://www.w3.org/2000/svg">
<circle cx="32" cy="32" r="17" fill="#336DFF"/>
<path d="M28.3244 2.90727C23.2461 3.53633 18.5797 5.42351 14.3707 8.54594C12.6551 9.82693 9.79568 12.6863 8.51469 14.4019C5.35795 18.6567 3.49364 23.3117 2.86458 28.47C2.67014 30.1628 2.67014 33.8685 2.86458 35.5612C3.49364 40.7195 5.35795 45.3746 8.51469 49.6293C9.79568 51.3449 12.6551 54.2043 14.3707 55.4853C18.6254 58.6421 23.2805 60.5064 28.4388 61.1354C30.1315 61.3299 33.8372 61.3299 35.53 61.1354C40.6883 60.5064 45.3433 58.6421 49.5981 55.4853C51.3137 54.2043 54.1731 51.3449 55.4541 49.6293C58.6108 45.3746 60.4751 40.7195 61.1042 35.5612C61.2986 33.8685 61.2986 30.1628 61.1042 28.47C60.4751 23.3117 58.6108 18.6567 55.4541 14.4019C54.1731 12.6863 51.3137 9.82693 49.5981 8.54594C45.3433 5.3892 40.6883 3.52489 35.53 2.89583C33.8944 2.70139 29.9485 2.71283 28.3244 2.90727ZM35.0954 9.65537C40.105 10.4102 44.5198 12.6177 48.0655 16.1633C51.6111 19.7089 53.8185 24.1238 54.5734 29.1334C54.7907 30.5859 54.7907 33.9028 54.5734 35.3554C53.8185 40.365 51.6111 44.7798 48.0655 48.3255C44.5198 51.8711 40.105 54.0785 35.0954 54.8334C33.6428 55.0507 30.3259 55.0507 28.8734 54.8334C23.8638 54.0785 19.4489 51.8711 15.9033 48.3255C12.3577 44.7798 10.1502 40.365 9.39537 35.3554C9.17806 33.9028 9.17806 30.5859 9.39537 29.1334C10.1502 24.1238 12.3577 19.7089 15.9033 16.1633C19.4146 12.6634 23.818 10.4331 28.7819 9.65537C30.1315 9.4495 33.7114 9.43806 35.0954 9.65537Z" fill="#336DFF"/>
<path d="M28.839 13.0184C24.6072 13.7618 21.1645 15.5232 18.2136 18.4741C14.4965 22.1912 12.5406 26.9264 12.5406 32.2448C12.5406 37.5632 14.4965 42.2983 18.2136 46.0155C21.9308 49.7327 26.6659 51.6885 31.9843 51.6885C37.3028 51.6885 42.0379 49.7327 45.7551 46.0155C49.4722 42.2983 51.428 37.5632 51.428 32.2448C51.428 26.9264 49.4722 22.1912 45.7551 18.4741C42.7584 15.4774 39.1442 13.6589 34.8437 12.9726C33.3568 12.7325 30.3259 12.7668 28.839 13.0184ZM32.5905 17.6506C33.1167 17.8679 33.4369 18.2682 33.5742 18.8629C33.6542 19.1832 33.7 21.5965 33.7 25.1764V30.9867H37.4171C41.5575 30.9867 41.6719 31.0095 42.2209 31.7072C42.8042 32.485 42.564 33.583 41.7062 34.0633C41.283 34.2921 41.1343 34.3035 36.4221 34.3035C31.5726 34.3035 31.5612 34.3035 31.1837 34.0405C30.9664 33.9032 30.6919 33.6058 30.5661 33.3885C30.3374 32.9997 30.3259 32.8052 30.2916 26.2515C30.2687 21.7566 30.303 19.3204 30.3831 18.9201C30.6119 17.8107 31.6183 17.2274 32.5905 17.6506Z" fill="white"/>
</svg>
