<svg width="64" height="64" viewBox="0 0 64 64" fill="none" xmlns="http://www.w3.org/2000/svg">
<path d="M6.06268 2.92729C5.22045 3.19852 4.20692 3.92654 3.63592 4.6974C2.70804 5.96787 2.70804 5.8965 2.75087 15.2324L2.79369 23.6404L3.13629 24.3541C3.8786 25.853 5.69153 27.1378 7.0762 27.1378H7.57583L7.60438 30.835L7.64721 34.5322L13.7855 30.835L19.9237 27.152L22.4361 27.1378H24.9486L25.6052 26.1528C28.4888 21.8274 33.0282 18.8011 38.2386 17.7591C39.1237 17.5878 40.1657 17.5164 41.8787 17.5164H44.2627V12.2774C44.2627 7.3811 44.2484 6.9814 43.9629 6.08208C43.5632 4.79732 42.3356 3.48402 41.0793 3.02722C40.2514 2.72744 40.2371 2.72744 23.4497 2.74172C10.1882 2.74172 6.51948 2.78454 6.06268 2.92729ZM16.0124 12.9055C17.654 13.7763 17.6826 16.0461 16.0695 16.9597C15.3129 17.3879 14.542 17.3736 13.7712 16.9311C13.1003 16.5457 12.5721 15.6464 12.5721 14.904C12.5721 14.1903 13.1574 13.2767 13.8568 12.9055C14.642 12.4916 15.213 12.4916 16.0124 12.9055ZM24.3205 12.7771C24.5774 12.877 24.9771 13.191 25.2198 13.4623C26.0763 14.433 25.9764 15.732 25.0057 16.6171C24.0064 17.5164 22.7787 17.5021 21.8509 16.5742C20.0665 14.7898 21.9936 11.8064 24.3205 12.7771ZM33.2424 12.9626C34.5414 13.9333 34.6841 15.4893 33.5707 16.5885C32.9854 17.1738 32.3002 17.3736 31.458 17.2166C30.7728 17.0881 29.9305 16.2459 29.7164 15.5036C29.4309 14.4758 30.0447 13.2196 31.0583 12.7771C31.6293 12.5058 32.7713 12.6058 33.2424 12.9626Z" fill="#336DFF"/>
<path d="M38.8667 21.2134C33.3137 22.2269 28.6743 26.1526 26.7757 31.4629C26.2761 32.8618 25.8478 35.0316 25.8478 36.1594C25.8478 36.8303 25.8478 36.8446 25.391 36.8446C24.3775 36.8588 23.1356 37.7439 22.5218 38.9002C22.2077 39.4712 22.2077 39.6282 22.1649 46.2375C22.1221 52.076 22.1506 53.1038 22.3505 53.7748C22.636 54.7455 23.3925 55.6162 24.349 56.0588C25.0484 56.3871 25.1626 56.4014 29.3738 56.4014H33.6848L34.0845 56.0588L34.4842 55.7162L34.47 50.4487C34.4557 44.0106 34.5128 44.2533 32.3144 39.8138L30.787 36.7161L30.944 35.5313C31.5579 30.949 34.8268 27.3517 39.3378 26.2668C40.3941 26.0241 40.8937 25.9813 42.1928 26.0384C45.0478 26.1668 47.2604 27.1375 49.2732 29.136C51.2003 31.0346 52.2567 33.1616 52.5136 35.6597L52.6421 36.7732L51.1289 39.8423C49.0162 44.1106 49.0591 43.8822 49.002 50.2346L48.9591 55.4307L47.5031 56.1159C45.5046 57.0723 44.1056 57.3863 41.4505 57.5005L39.2664 57.5862V59.4277V61.2549H41.3077C44.5196 61.2549 46.8322 60.7553 49.3874 59.5133C50.6579 58.8852 52.428 57.6861 53.2559 56.8867L53.7698 56.4014H55.9682C57.1816 56.4014 58.4235 56.33 58.709 56.2586C59.5227 56.0302 60.4077 55.2736 60.8502 54.4171L61.2499 53.6606V46.6372C61.2499 39.8994 61.2357 39.5996 60.9502 38.9858C60.7931 38.6289 60.4934 38.1579 60.2792 37.9295C59.8224 37.4441 58.6233 36.8446 58.0952 36.8446C57.724 36.8446 57.7097 36.8017 57.6098 35.8025C57.1958 31.4343 55.6684 28.2224 52.6564 25.3389C50.3295 23.112 47.8314 21.8415 44.5339 21.2134C43.1349 20.9564 40.3227 20.9564 38.8667 21.2134Z" fill="#C8D1EA"/>
</svg>
