<?xml version="1.0" encoding="UTF-8"?> <svg xmlns="http://www.w3.org/2000/svg" width="42" height="42" viewBox="0 0 42 42" fill="none"><path d="M11.0718 3.44293C11.0718 3.44293 15.0966 -0.42563 20.5615 0.0386871C25.8227 0.487378 27.601 5.8806 28.1206 8.98348C24.3534 3.67286 19.4461 0.672659 15.5176 1.81782C21.8919 1.53209 25.4665 7.17087 27.3143 8.85625C21.3746 7.43204 22.1741 6.57931 19.4708 4.54792C16.7361 2.49421 12.438 3.47865 11.0718 3.44293Z" fill="#C0B08A"></path><path d="M25.639 1.35128C25.639 1.35128 28.4544 4.13718 29.1487 6.7378C29.9371 9.68443 30.6448 11.2671 32.1679 13.9035C33.3908 16.0174 33.9283 17.4506 34.3247 18.7766C35.691 14.8008 37.9912 9.11966 31.8453 4.48988C33.29 8.037 34.9966 12.7806 34.2889 16.5554C32.6718 12.6869 32.9921 9.14421 31.1958 5.15957C29.3996 1.17493 25.639 1.35351 25.639 1.35351V1.35128Z" fill="#C0B08A"></path><path d="M36.6742 8.98349C36.6742 8.98349 38.9655 13.4369 36.2912 18.5131C34.7817 21.3794 33.9238 22.3549 33.944 24.4845C33.9552 25.6587 33.3303 27.9312 32.4814 28.9513C32.4814 28.9513 36.8915 27.7816 39.2858 24.0314C41.6823 20.2811 41.1313 18.348 40.6766 16.3657C40.222 14.3834 39.1917 12.736 38.8804 12.2583C39.073 14.5977 39.3597 17.7028 38.5444 19.8771C37.7291 22.0513 35.6686 25.9199 34.7593 26.7324C35.906 24.5359 36.8265 22.9978 37.4313 21.1004C37.9374 19.5177 39.7091 12.9882 36.6765 8.98796V8.98349H36.6742Z" fill="#C0B08A"></path><path d="M39.933 25.3663C39.933 25.3663 37.5253 28.0897 34.7212 29.2706C31.917 30.4537 29.6168 32.4583 27.3883 33.3534C31.917 33.9807 36.5801 31.0564 38.242 28.4446C36.6428 31.7216 34.4322 34.4986 24.7991 34.4272C29.1845 35.3223 29.7601 36.6126 33.7491 35.0366C37.7381 33.4606 39.5187 28.6366 39.9308 25.3641L39.933 25.3663Z" fill="#C0B08A"></path><path d="M17.2535 35.7799C17.2535 35.7799 22.537 34.9451 24.8014 35.7799C27.0657 36.6148 29.0434 37.5457 30.8039 37.0791C32.5643 36.6126 33.2116 36.3068 33.9305 35.7799C32.3672 37.5457 31.8812 38.8359 28.6828 39.9811C25.4845 41.1285 22.9312 40.7535 21.435 39.9342C20.0039 39.1507 18.9064 37.76 18.1158 36.9005C20.1651 37.4742 21.3858 37.9386 22.6087 38.6194C23.8316 39.3003 24.9447 39.5146 26.3468 39.4431C27.7489 39.3717 30.553 38.4765 31.702 37.5814C28.432 38.5123 27.8205 39.0502 25.6995 38.7645C23.5785 38.4788 21.818 37.5457 20.7027 36.9385C19.5895 36.3291 17.7193 36.1304 17.2512 35.7822H17.2535V35.7799Z" fill="#C0B08A"></path><path d="M4.27871 8.49239C4.27871 8.49239 6.39974 5.05242 11.251 4.30014C15.2646 3.67733 17.3005 4.30014 19.7575 6.21768C13.3362 5.66184 10.662 5.26672 6.63043 8.01691C5.20148 8.99242 3.63143 10.8564 3.63143 10.8564C3.63143 10.8564 6.14889 7.99235 10.9262 7.05255C15.7036 6.11053 18.5122 6.88067 18.5122 6.88067C18.5122 6.88067 14.3777 8.55043 9.49057 10.0617C4.60123 11.573 3.31787 12.2538 2.09497 13.2918C2.63027 11.3028 3.235 10.0684 4.27871 8.49239Z" fill="#C0B08A"></path><path d="M7.72787 11.4189C6.07495 12.0194 4.20477 12.6846 2.40851 14.4035C0.61224 16.1224 0.0366303 19.0958 0.000794526 20.7432C-0.0350412 22.3906 1.15202 23.538 1.40287 25.0069C3.34472 21.8192 5.21266 20.7789 6.39971 18.1292C7.58677 15.4772 8.09519 14.1245 9.55102 12.3877C5.52622 15.6469 3.59557 17.4483 2.44434 19.7052C1.29312 21.962 1.29312 22.2478 1.3312 22.7858C1.08035 20.4218 1.36703 19.2029 3.19913 17.1983C5.03124 15.1915 9.20162 11.5372 11.5377 10.4635C9.76156 10.8162 8.41995 11.1667 7.72787 11.4189Z" fill="#C0B08A"></path><path d="M5.60686 21.0669C5.60686 21.0669 1.71197 26.8217 2.30102 30.572C2.84975 34.0812 4.24511 35.3625 6.28998 36.5769C7.43897 37.2599 8.59019 37.5077 8.59019 37.5077C8.59019 37.5077 7.26875 36.617 6.94399 34.7888C6.62146 32.9628 6.64162 31.427 6.76257 28.9804C6.83648 27.4624 6.11752 24.4042 5.97418 22.6116C5.18355 26.4088 5.01557 27.5316 4.92823 29.0719C4.84536 30.5318 4.84312 32.0632 5.21267 33.1726C5.64494 34.4629 6.44677 35.4071 6.8432 36.0143C5.73677 35.329 4.6393 34.8558 4.13536 31.2729C3.63142 27.6901 4.87223 24.9377 5.60911 21.0624V21.0669H5.60686Z" fill="#C0B08A"></path><path d="M7.77045 28.7683C7.77045 28.7683 7.15228 34.6794 9.20164 36.9005C11.251 39.1217 13.0831 40.6977 15.6722 41.4142C18.2591 42.1308 20.201 41.9522 21.6389 41.7357C19.9613 40.7021 18.9422 39.9878 17.8649 39.0123C16.7361 37.9899 12.989 33.7932 10.7963 32.2172C12.2342 36.2889 12.241 36.588 14.5344 38.4743C17.0026 40.5035 18.9445 40.624 19.5895 41.0883C16.0664 40.3003 13.9342 39.3806 12.6889 38.0524C11.092 36.3514 10.317 33.887 9.70558 31.9895C9.09413 30.0898 7.77045 28.7661 7.77045 28.7661V28.7683Z" fill="#C0B08A"></path><path d="M23.1149 24.6363V29.9961C22.3534 30.0831 21.6926 29.438 21.6882 28.6254C21.6792 26.5427 21.6837 24.4622 21.6837 22.3795C21.6837 19.6695 21.6837 16.9595 21.6882 14.2495C21.6882 13.7918 21.6926 13.7918 22.154 13.7918C24.602 13.7941 26.5663 15.1491 27.3009 17.3948C27.4644 17.8948 27.5495 18.4417 27.5563 18.9685C27.5831 21.2477 27.563 23.5269 27.5742 25.8083C27.5742 26.1096 27.4935 26.2012 27.1822 26.2079C25.713 26.2436 24.4341 25.786 23.3411 24.806C23.2985 24.768 23.2493 24.7368 23.1149 24.6386V24.6363ZM23.1149 18.723C23.1149 19.607 23.1081 20.491 23.1149 21.3727C23.1305 22.9509 24.3131 24.3484 25.7801 24.5448C26.0131 24.5761 26.1228 24.5381 26.1228 24.2702C26.1139 22.4442 26.1385 20.6204 26.1116 18.7944C26.0892 17.2073 24.9179 15.8054 23.4844 15.5554C23.2089 15.5062 23.1037 15.5665 23.1081 15.8612C23.1216 16.8144 23.1126 17.7676 23.1126 18.7208L23.1149 18.723Z" fill="#C0B08A"></path><path d="M15.5513 13.8298V14.5441C15.5513 15.475 15.5603 16.4059 15.5513 17.3345C15.5513 17.5934 15.6364 17.6961 15.8917 17.7519C18.333 18.2855 19.9949 20.3481 19.9994 22.8438C20.0039 25.1006 19.9927 27.3575 20.0106 29.6121C20.0106 29.9715 19.9076 30.0563 19.5604 30.0541C16.8817 30.0474 14.7316 28.3509 14.2321 25.8127C14.1649 25.4734 14.1291 25.1207 14.1291 24.7725C14.1223 21.6205 14.1223 18.4685 14.1291 15.3165C14.1291 14.4191 14.689 13.8142 15.5558 13.8253V13.8298H15.5513ZM18.5951 25.1832C18.5951 24.2658 18.6108 23.3461 18.5951 22.4286C18.566 20.9106 17.4618 19.5802 16.0284 19.3034C15.6274 19.2252 15.5804 19.261 15.5804 19.6672C15.5804 21.4107 15.5715 23.1541 15.5871 24.8997C15.5871 25.2435 15.6319 25.6029 15.7394 25.9288C16.1291 27.1209 16.8727 27.9736 18.1516 28.2549C18.5682 28.3464 18.5973 28.3151 18.5996 27.9044V25.1832H18.5951Z" fill="#C0B08A"></path></svg> 