<svg width="202" height="52" viewBox="0 0 202 52" fill="none" xmlns="http://www.w3.org/2000/svg">
<g clip-path="url(#clip0_1320_4263)">
<path d="M149.775 51.0846V1.10059H177.389C182.693 1.10059 187.081 2.22699 190.554 4.47978C194.074 6.68565 196.703 9.68939 198.439 13.491C200.223 17.2457 201.114 21.4227 201.114 26.0222C201.114 31.091 200.152 35.5027 198.228 39.2574C196.304 43.0121 193.558 45.9219 189.991 47.987C186.424 50.0521 182.224 51.0846 177.389 51.0846H149.775ZM197.524 26.0222C197.524 21.8451 196.726 18.1139 195.13 14.8286C193.581 11.5433 191.305 8.98539 188.301 7.15499C185.345 5.27765 181.707 4.33899 177.389 4.33899H153.365V47.8462H177.389C181.754 47.8462 185.439 46.8841 188.442 44.9598C191.446 43.0355 193.699 40.4307 195.201 37.1454C196.749 33.8131 197.524 30.1054 197.524 26.0222Z" fill="white"/>
<path d="M105.156 50.984V1H125.924C128.083 1 130.031 1.44587 131.767 2.3376C133.551 3.22933 135.076 4.42613 136.343 5.928C137.658 7.38293 138.667 9.0256 139.371 10.856C140.122 12.6864 140.497 14.5637 140.497 16.488C140.497 18.9755 140.004 21.2987 139.019 23.4576C138.033 25.6165 136.648 27.4235 134.865 28.8784C133.128 30.3333 131.087 31.2251 128.74 31.5536L141.201 50.984H137.047L124.939 32.1168H108.747V50.984H105.156ZM108.747 28.808H126.276C128.435 28.808 130.312 28.2213 131.908 27.048C133.504 25.8747 134.724 24.3493 135.569 22.472C136.461 20.5947 136.907 18.6 136.907 16.488C136.907 14.3291 136.39 12.3344 135.358 10.504C134.372 8.62667 133.035 7.1248 131.345 5.9984C129.702 4.82507 127.848 4.2384 125.783 4.2384H108.747V28.808Z" fill="white"/>
<path d="M3.49049 7.78859V51.0846H-0.0999146V1.10059H2.85689L37.7049 45.1006V1.10059H41.2953V51.0846H37.7753L3.49049 7.78859Z" fill="white"/>
<path d="M73.5652 50.6C70.1379 50.6 67.0115 49.9111 64.1863 48.5333C61.361 47.1096 58.9294 45.2267 56.8915 42.8844C54.8537 40.5422 53.2789 37.9015 52.1673 34.9622C51.0558 31.977 50.5 28.923 50.5 25.8C50.5 22.5393 51.0789 19.4393 52.2368 16.5C53.3947 13.5148 55.0158 10.8741 57.1 8.57778C59.2305 6.23556 61.6852 4.39852 64.4642 3.06666C67.2894 1.68889 70.3463 1 73.6347 1C77.1084 1 80.2347 1.71185 83.0137 3.13556C85.8389 4.55926 88.2705 6.46518 90.3084 8.85334C92.3463 11.2415 93.921 13.9052 95.0326 16.8444C96.1442 19.7837 96.7 22.7689 96.7 25.8C96.7 29.1067 96.121 32.2526 94.9631 35.2378C93.8052 38.177 92.161 40.8178 90.0305 43.16C87.9463 45.4563 85.4915 47.2704 82.6663 48.6022C79.8873 49.9341 76.8537 50.6 73.5652 50.6ZM54.0431 25.8C54.0431 28.6015 54.5294 31.2882 55.5021 33.86C56.4747 36.4319 57.8179 38.7282 59.5315 40.7489C61.2915 42.7696 63.3526 44.377 65.7147 45.5711C68.1231 46.7652 70.7631 47.3622 73.6347 47.3622C76.5526 47.3622 79.2158 46.7422 81.6242 45.5022C84.0326 44.2622 86.0937 42.6089 87.8073 40.5422C89.521 38.4756 90.8179 36.1793 91.6979 33.6533C92.6242 31.0815 93.0873 28.4637 93.0873 25.8C93.0873 22.9985 92.601 20.3119 91.6284 17.74C90.7021 15.1682 89.3589 12.8719 87.5989 10.8511C85.8389 8.83037 83.7547 7.22296 81.3463 6.02889C78.9842 4.83482 76.4136 4.23778 73.6347 4.23778C70.6705 4.23778 67.9842 4.85778 65.5758 6.09778C63.1673 7.33778 61.1063 8.99111 59.3926 11.0578C57.7252 13.1244 56.4052 15.4437 55.4326 18.0156C54.5063 20.5415 54.0431 23.1363 54.0431 25.8Z" fill="white"/>
<path d="M73.3482 11.1339C72.8531 11.4017 72.8456 11.4418 72.8006 13.4167L72.7631 15.2109L71.4129 14.3004C69.6576 13.1222 69.6951 13.1423 69.2001 13.1423C68.7125 13.1423 68.3749 13.3029 68.1499 13.6243C67.9549 13.9121 67.9474 14.5013 68.1349 14.7824C68.2174 14.8962 69.2751 15.646 70.5353 16.4895L72.7931 17.9958L72.8006 21.0351V24.0678L72.6356 23.9741C72.5381 23.9205 71.2329 23.2176 69.7251 22.4142C68.2174 21.6109 66.9797 20.9414 66.9647 20.9347C66.9497 20.928 66.8147 19.81 66.6497 18.4444C66.4546 16.7774 66.3271 15.8937 66.2446 15.7397C66.0496 15.3849 65.652 15.1841 65.1419 15.1841C64.6543 15.1841 64.4068 15.3046 64.1142 15.6862C63.9042 15.9674 63.9042 16.1481 64.1067 17.949C64.1968 18.7255 64.2568 19.3816 64.2343 19.4017C64.2118 19.4218 63.4841 19.0603 62.6215 18.5983C61.6989 18.1029 60.9337 17.7414 60.7762 17.7146C60.3861 17.6611 59.8686 17.8485 59.6285 18.1364C59.261 18.5582 59.3135 19.2343 59.7335 19.5824C59.8461 19.6761 60.5812 20.0912 61.3613 20.5063C62.1489 20.9213 62.824 21.2962 62.8765 21.3364C62.9441 21.39 62.5615 21.5573 61.3088 22.0059C60.4012 22.3339 59.5535 22.682 59.426 22.7757C58.5784 23.4117 59.0809 24.6703 60.1836 24.677C60.4687 24.677 61.0087 24.5096 62.8991 23.8201C64.1968 23.3515 65.3519 22.9297 65.4645 22.8962C65.6445 22.8293 65.8995 22.9498 68.5925 24.3958C70.2052 25.2527 71.5254 25.9757 71.5254 25.9958C71.5254 26.036 65.922 29.0485 65.727 29.1155C65.652 29.1356 64.6093 28.7941 63.1091 28.2519C61.7364 27.7565 60.5287 27.3347 60.4237 27.3079C60.1536 27.2544 59.651 27.3883 59.411 27.5824C58.8784 28.0243 58.8709 28.7674 59.396 29.2025C59.501 29.2828 60.3486 29.6377 61.2863 29.9791C62.509 30.4209 62.9516 30.6151 62.884 30.6619C62.8315 30.6954 62.1489 31.0703 61.3613 31.4854C60.5812 31.9004 59.8536 32.3021 59.756 32.3824C59.141 32.8644 59.2985 33.8084 60.0486 34.1498C60.6262 34.4176 60.8212 34.3573 62.614 33.4C63.4841 32.9314 64.2118 32.5699 64.2343 32.5833C64.2568 32.6033 64.1968 33.246 64.1067 34.0092C63.9192 35.6561 63.9117 35.9774 64.0617 36.2318C64.3093 36.6736 64.8569 36.9013 65.412 36.8142C65.7195 36.7607 66.1771 36.4259 66.2896 36.1782C66.3271 36.0845 66.4921 34.913 66.6497 33.5741C66.8447 31.8669 66.9572 31.1105 67.0322 31.0502C67.0922 31.0033 68.3374 30.3205 69.8002 29.5372C71.2629 28.7607 72.5381 28.0711 72.6356 28.0176L72.8006 27.9238V30.9565L72.7931 33.9958L70.5353 35.5021C69.2751 36.3456 68.2174 37.0954 68.1349 37.2092C67.9474 37.4904 67.9549 38.0795 68.1499 38.3674C68.3749 38.6887 68.7125 38.8494 69.2001 38.8494C69.6951 38.8494 69.6576 38.8695 71.4129 37.6912L72.7631 36.7808L72.8006 38.5749C72.8306 40.1481 72.8531 40.3824 72.9732 40.5431C73.4157 41.1523 74.5859 41.1523 75.0285 40.5431C75.1485 40.3824 75.171 40.1481 75.201 38.5749L75.2385 36.7808L76.5887 37.6912C78.344 38.8695 78.3065 38.8494 78.8016 38.8494C79.2892 38.8494 79.6267 38.6887 79.8518 38.3674C80.0468 38.0795 80.0543 37.4904 79.8668 37.2092C79.7843 37.0954 78.7266 36.3456 77.4664 35.5021L75.2085 33.9958L75.201 30.9565V27.9238L75.3735 28.0176C75.4636 28.0711 76.7688 28.7741 78.2765 29.5774C79.7843 30.3808 81.0219 31.0435 81.037 31.0502C81.052 31.0636 81.187 32.1816 81.352 33.5339C81.5095 34.8929 81.6746 36.0778 81.7121 36.1715C81.8321 36.4393 82.1846 36.6937 82.5597 36.7808C83.0473 36.8946 83.5273 36.7339 83.8349 36.3523C84.1049 36.0176 84.1049 35.8837 83.8949 34.0092C83.8049 33.246 83.7449 32.6033 83.7674 32.59C83.7899 32.5699 84.51 32.9314 85.3801 33.3933C87.1729 34.3439 87.383 34.4109 87.9531 34.1498C88.6732 33.8151 88.8532 32.9582 88.3056 32.4293C88.2156 32.349 87.5705 31.9741 86.8654 31.5992C86.1678 31.231 85.4627 30.8561 85.2976 30.7623L85.0051 30.6017L86.7079 29.9791C88.4106 29.3632 88.6882 29.2159 88.9057 28.8477C89.0557 28.5866 89.0032 27.9908 88.8082 27.7498C88.6282 27.5356 88.0731 27.2678 87.803 27.2678C87.698 27.2678 86.4828 27.6762 85.1026 28.1782C83.7224 28.6803 82.5297 29.1021 82.4547 29.1222C82.3722 29.149 81.2995 28.6134 79.4017 27.5958C77.7889 26.7322 76.4762 26.0159 76.4762 25.9958C76.4762 25.9556 82.0796 22.9431 82.2746 22.8762C82.3572 22.8494 83.3773 23.1908 84.9376 23.7598C86.9929 24.5096 87.533 24.6837 87.818 24.677C88.9057 24.6636 89.4083 23.4519 88.6057 22.7891C88.5006 22.7088 87.6455 22.354 86.7079 22.0126C85.0651 21.41 85.0126 21.39 85.1851 21.2895C85.2826 21.236 85.9877 20.8611 86.7529 20.4527C87.518 20.051 88.2156 19.6427 88.3056 19.5556C88.8532 19.0335 88.6732 18.1766 87.9531 17.8418C87.383 17.5808 87.1654 17.641 85.3726 18.605C84.51 19.0603 83.7899 19.4218 83.7674 19.4084C83.7449 19.3883 83.8049 18.7456 83.8949 17.9824C84.1049 16.1079 84.1049 15.9741 83.8349 15.6393C83.4298 15.1439 82.7322 15.0301 82.1696 15.3715C81.6821 15.6661 81.6595 15.7397 81.3595 18.3908C81.202 19.723 81.052 20.8544 81.0219 20.8946C80.9919 20.9347 79.7467 21.6243 78.254 22.4209C76.7613 23.2243 75.4636 23.9205 75.3735 23.9741L75.201 24.0678V21.0351L75.2085 17.9958L77.4664 16.4895C78.7266 15.646 79.7843 14.8962 79.8668 14.7824C80.0543 14.5013 80.0468 13.9121 79.8518 13.6243C79.6267 13.3029 79.2892 13.1423 78.8016 13.1423C78.3065 13.1423 78.344 13.1222 76.5887 14.3004L75.2385 15.2109L75.201 13.4167C75.171 11.8435 75.1485 11.6092 75.0285 11.4485C74.811 11.1473 74.4659 11 74.0008 11C73.7233 11 73.5057 11.0402 73.3482 11.1339Z" fill="white"/>
</g>
<defs>
<clipPath id="clip0_1320_4263">
<rect width="202" height="52" fill="white"/>
</clipPath>
</defs>
</svg>
