<svg width="220" height="66" viewBox="0 0 220 66" fill="none" xmlns="http://www.w3.org/2000/svg">
<path d="M159.775 58.7858V8.80176H187.389C192.693 8.80176 197.081 9.92816 200.554 12.181C204.074 14.3868 206.703 17.3906 208.439 21.1922C210.223 24.9468 211.114 29.1239 211.114 33.7234C211.114 38.7922 210.152 43.2039 208.228 46.9586C206.304 50.7132 203.558 53.6231 199.991 55.6882C196.424 57.7532 192.224 58.7858 187.389 58.7858H159.775ZM207.524 33.7234C207.524 29.5463 206.726 25.8151 205.13 22.5298C203.581 19.2444 201.305 16.6866 198.301 14.8562C195.345 12.9788 191.707 12.0402 187.389 12.0402H163.365V55.5474H187.389C191.754 55.5474 195.439 54.5852 198.442 52.661C201.446 50.7367 203.699 48.1319 205.201 44.8466C206.749 41.5143 207.524 37.8066 207.524 33.7234Z" fill="white"/>
<path d="M115.156 58.7858V8.80176H135.924C138.083 8.80176 140.031 9.24762 141.767 10.1394C143.551 11.0311 145.076 12.2279 146.343 13.7298C147.658 15.1847 148.667 16.8274 149.371 18.6578C150.122 20.4882 150.497 22.3655 150.497 24.2898C150.497 26.7772 150.004 29.1004 149.019 31.2594C148.033 33.4183 146.648 35.2252 144.865 36.6802C143.128 38.1351 141.087 39.0268 138.74 39.3554L151.201 58.7858H147.047L134.939 39.9186H118.747V58.7858H115.156ZM118.747 36.6098H136.276C138.435 36.6098 140.312 36.0231 141.908 34.8498C143.504 33.6764 144.724 32.1511 145.569 30.2738C146.461 28.3964 146.907 26.4018 146.907 24.2898C146.907 22.1308 146.39 20.1362 145.358 18.3058C144.372 16.4284 143.035 14.9266 141.345 13.8002C139.702 12.6268 137.848 12.0402 135.783 12.0402H118.747V36.6098Z" fill="white"/>
<path d="M13.4905 15.4898V58.7858H9.90009V8.80176H12.8569L47.7049 52.8018V8.80176H51.2953V58.7858H47.7753L13.4905 15.4898Z" fill="white"/>
<path d="M83.5652 58.3012C80.1379 58.3012 77.0115 57.5984 74.1863 56.1928C71.361 54.7404 68.9294 52.8195 66.8915 50.4301C64.8537 48.0406 63.2789 45.3466 62.1673 42.3481C61.0558 39.3027 60.5 36.1871 60.5 33.0012C60.5 29.6747 61.0789 26.5122 62.2368 23.5137C63.3947 20.4683 65.0158 17.7743 67.1 15.4317C69.2305 13.0423 71.6852 11.1682 74.4642 9.8095C77.2894 8.40395 80.3463 7.70117 83.6347 7.70117C87.1084 7.70117 90.2347 8.42738 93.0137 9.87978C95.8389 11.3322 98.2705 13.2765 100.308 15.7128C102.346 18.1491 103.921 20.8665 105.033 23.8651C106.144 26.8636 106.7 29.909 106.7 33.0012C106.7 36.3745 106.121 39.5839 104.963 42.6292C103.805 45.6278 102.161 48.3217 100.03 50.7112C97.9463 53.0538 95.4915 54.9044 92.6663 56.2631C89.8873 57.6218 86.8537 58.3012 83.5652 58.3012ZM64.0431 33.0012C64.0431 35.8591 64.5294 38.6 65.5021 41.2237C66.4747 43.8474 67.8179 46.19 69.5315 48.2515C71.2915 50.3129 73.3526 51.9527 75.7147 53.1709C78.1231 54.389 80.7631 54.9981 83.6347 54.9981C86.5526 54.9981 89.2158 54.3656 91.6242 53.1006C94.0326 51.8356 96.0937 50.1489 97.8073 48.0406C99.521 45.9323 100.818 43.5897 101.698 41.0128C102.624 38.3891 103.087 35.7186 103.087 33.0012C103.087 30.1432 102.601 27.4024 101.628 24.7787C100.702 22.155 99.3589 19.8124 97.5989 17.7509C95.8389 15.6894 93.7547 14.0496 91.3463 12.8315C88.9842 11.6133 86.4136 11.0042 83.6347 11.0042C80.6705 11.0042 77.9842 11.6367 75.5758 12.9017C73.1673 14.1667 71.1063 15.8534 69.3926 17.9617C67.7252 20.0701 66.4052 22.4361 65.4326 25.0598C64.5063 27.6366 64.0431 30.2838 64.0431 33.0012Z" fill="white"/>
<path d="M83.3482 18.1339C82.8531 18.4017 82.8456 18.4418 82.8006 20.4167L82.7631 22.2109L81.4129 21.3004C79.6576 20.1222 79.6951 20.1423 79.2001 20.1423C78.7125 20.1423 78.3749 20.3029 78.1499 20.6243C77.9549 20.9121 77.9474 21.5013 78.1349 21.7824C78.2174 21.8962 79.2751 22.646 80.5353 23.4895L82.7931 24.9958L82.8006 28.0351V31.0678L82.6356 30.9741C82.5381 30.9205 81.2329 30.2176 79.7251 29.4142C78.2174 28.6109 76.9797 27.9414 76.9647 27.9347C76.9497 27.928 76.8147 26.81 76.6497 25.4444C76.4546 23.7774 76.3271 22.8937 76.2446 22.7397C76.0496 22.3849 75.652 22.1841 75.1419 22.1841C74.6543 22.1841 74.4068 22.3046 74.1142 22.6862C73.9042 22.9674 73.9042 23.1481 74.1067 24.949C74.1968 25.7255 74.2568 26.3816 74.2343 26.4017C74.2118 26.4218 73.4841 26.0603 72.6215 25.5983C71.6989 25.1029 70.9337 24.7414 70.7762 24.7146C70.3861 24.6611 69.8686 24.8485 69.6285 25.1364C69.261 25.5582 69.3135 26.2343 69.7335 26.5824C69.8461 26.6761 70.5812 27.0912 71.3613 27.5063C72.1489 27.9213 72.824 28.2962 72.8765 28.3364C72.9441 28.39 72.5615 28.5573 71.3088 29.0059C70.4012 29.3339 69.5535 29.682 69.426 29.7757C68.5784 30.4117 69.0809 31.6703 70.1836 31.677C70.4687 31.677 71.0087 31.5096 72.8991 30.8201C74.1968 30.3515 75.3519 29.9297 75.4645 29.8962C75.6445 29.8293 75.8995 29.9498 78.5925 31.3958C80.2052 32.2527 81.5254 32.9757 81.5254 32.9958C81.5254 33.036 75.922 36.0485 75.727 36.1155C75.652 36.1356 74.6093 35.7941 73.1091 35.2519C71.7364 34.7565 70.5287 34.3347 70.4237 34.3079C70.1536 34.2544 69.651 34.3883 69.411 34.5824C68.8784 35.0243 68.8709 35.7674 69.396 36.2025C69.501 36.2828 70.3486 36.6377 71.2863 36.9791C72.509 37.4209 72.9516 37.6151 72.884 37.6619C72.8315 37.6954 72.1489 38.0703 71.3613 38.4854C70.5812 38.9004 69.8536 39.3021 69.756 39.3824C69.141 39.8644 69.2985 40.8084 70.0486 41.1498C70.6262 41.4176 70.8212 41.3573 72.614 40.4C73.4841 39.9314 74.2118 39.5699 74.2343 39.5833C74.2568 39.6033 74.1968 40.246 74.1067 41.0092C73.9192 42.6561 73.9117 42.9774 74.0617 43.2318C74.3093 43.6736 74.8569 43.9013 75.412 43.8142C75.7195 43.7607 76.1771 43.4259 76.2896 43.1782C76.3271 43.0845 76.4921 41.913 76.6497 40.5741C76.8447 38.8669 76.9572 38.1105 77.0322 38.0502C77.0922 38.0033 78.3374 37.3205 79.8002 36.5372C81.2629 35.7607 82.5381 35.0711 82.6356 35.0176L82.8006 34.9238V37.9565L82.7931 40.9958L80.5353 42.5021C79.2751 43.3456 78.2174 44.0954 78.1349 44.2092C77.9474 44.4904 77.9549 45.0795 78.1499 45.3674C78.3749 45.6887 78.7125 45.8494 79.2001 45.8494C79.6951 45.8494 79.6576 45.8695 81.4129 44.6912L82.7631 43.7808L82.8006 45.5749C82.8306 47.1481 82.8531 47.3824 82.9732 47.5431C83.4157 48.1523 84.5859 48.1523 85.0285 47.5431C85.1485 47.3824 85.171 47.1481 85.201 45.5749L85.2385 43.7808L86.5887 44.6912C88.344 45.8695 88.3065 45.8494 88.8016 45.8494C89.2892 45.8494 89.6267 45.6887 89.8518 45.3674C90.0468 45.0795 90.0543 44.4904 89.8668 44.2092C89.7843 44.0954 88.7266 43.3456 87.4664 42.5021L85.2085 40.9958L85.201 37.9565V34.9238L85.3735 35.0176C85.4636 35.0711 86.7688 35.7741 88.2765 36.5774C89.7843 37.3808 91.0219 38.0435 91.037 38.0502C91.052 38.0636 91.187 39.1816 91.352 40.5339C91.5095 41.8929 91.6746 43.0778 91.7121 43.1715C91.8321 43.4393 92.1846 43.6937 92.5597 43.7808C93.0473 43.8946 93.5273 43.7339 93.8349 43.3523C94.1049 43.0176 94.1049 42.8837 93.8949 41.0092C93.8049 40.246 93.7449 39.6033 93.7674 39.59C93.7899 39.5699 94.51 39.9314 95.3801 40.3933C97.1729 41.3439 97.383 41.4109 97.9531 41.1498C98.6732 40.8151 98.8532 39.9582 98.3056 39.4293C98.2156 39.349 97.5705 38.9741 96.8654 38.5992C96.1678 38.231 95.4627 37.8561 95.2976 37.7623L95.0051 37.6017L96.7079 36.9791C98.4106 36.3632 98.6882 36.2159 98.9057 35.8477C99.0557 35.5866 99.0032 34.9908 98.8082 34.7498C98.6282 34.5356 98.0731 34.2678 97.803 34.2678C97.698 34.2678 96.4828 34.6762 95.1026 35.1782C93.7224 35.6803 92.5297 36.1021 92.4547 36.1222C92.3722 36.149 91.2995 35.6134 89.4017 34.5958C87.7889 33.7322 86.4762 33.0159 86.4762 32.9958C86.4762 32.9556 92.0796 29.9431 92.2746 29.8762C92.3572 29.8494 93.3773 30.1908 94.9376 30.7598C96.9929 31.5096 97.533 31.6837 97.818 31.677C98.9057 31.6636 99.4083 30.4519 98.6057 29.7891C98.5006 29.7088 97.6455 29.354 96.7079 29.0126C95.0651 28.41 95.0126 28.39 95.1851 28.2895C95.2826 28.236 95.9877 27.8611 96.7529 27.4527C97.518 27.051 98.2156 26.6427 98.3056 26.5556C98.8532 26.0335 98.6732 25.1766 97.9531 24.8418C97.383 24.5808 97.1654 24.641 95.3726 25.605C94.51 26.0603 93.7899 26.4218 93.7674 26.4084C93.7449 26.3883 93.8049 25.7456 93.8949 24.9824C94.1049 23.1079 94.1049 22.9741 93.8349 22.6393C93.4298 22.1439 92.7322 22.0301 92.1696 22.3715C91.6821 22.6661 91.6595 22.7397 91.3595 25.3908C91.202 26.723 91.052 27.8544 91.0219 27.8946C90.9919 27.9347 89.7467 28.6243 88.254 29.4209C86.7613 30.2243 85.4636 30.9205 85.3735 30.9741L85.201 31.0678V28.0351L85.2085 24.9958L87.4664 23.4895C88.7266 22.646 89.7843 21.8962 89.8668 21.7824C90.0543 21.5013 90.0468 20.9121 89.8518 20.6243C89.6267 20.3029 89.2892 20.1423 88.8016 20.1423C88.3065 20.1423 88.344 20.1222 86.5887 21.3004L85.2385 22.2109L85.201 20.4167C85.171 18.8435 85.1485 18.6092 85.0285 18.4485C84.811 18.1473 84.4659 18 84.0008 18C83.7233 18 83.5057 18.0402 83.3482 18.1339Z" fill="white"/>
</svg>
