<svg width="105" height="26" viewBox="0 0 105 26" fill="none" xmlns="http://www.w3.org/2000/svg">
<path d="M74.9374 25.892V0.899963H92.4113C95.063 0.899963 97.2571 1.46316 98.9937 2.58956C100.754 3.6925 102.068 5.19436 102.936 7.09516C103.828 8.9725 104.274 11.061 104.274 13.3608C104.274 15.8952 103.793 18.101 102.83 19.9784C101.868 21.8557 100.496 23.3106 98.7121 24.3432C96.9286 25.3757 94.8283 25.892 92.4113 25.892H74.9374ZM102.478 13.3608C102.478 11.2722 102.08 9.40663 101.282 7.76396C100.507 6.1213 99.3691 4.84236 97.8673 3.92716C96.3889 2.9885 94.5702 2.51916 92.4113 2.51916H76.7326V24.2728H92.4113C94.5937 24.2728 96.4358 23.7917 97.9377 22.8296C99.4395 21.8674 100.566 20.565 101.317 18.9224C102.091 17.2562 102.478 15.4024 102.478 13.3608Z" fill="#222222"/>
<path d="M52.6279 25.892V0.899963H63.0119C64.0914 0.899963 65.0653 1.1229 65.9335 1.56876C66.8253 2.01463 67.5879 2.61303 68.2215 3.36396C68.8786 4.09143 69.3831 4.91276 69.7351 5.82796C70.1106 6.74316 70.2983 7.68183 70.2983 8.64396C70.2983 9.8877 70.0519 11.0493 69.5591 12.1288C69.0663 13.2082 68.3741 14.1117 67.4823 14.8392C66.6141 15.5666 65.5933 16.0125 64.4199 16.1768L70.6503 25.892H68.5735L62.5191 16.4584H54.4231V25.892H52.6279ZM54.4231 14.804H63.1879C64.2674 14.804 65.2061 14.5106 66.0039 13.924C66.8018 13.3373 67.4119 12.5746 67.8343 11.636C68.2802 10.6973 68.5031 9.69996 68.5031 8.64396C68.5031 7.5645 68.245 6.56716 67.7287 5.65196C67.2359 4.7133 66.5671 3.96236 65.7223 3.39916C64.901 2.8125 63.9741 2.51916 62.9415 2.51916H54.4231V14.804Z" fill="#222222"/>
<path d="M1.79512 4.24396V25.892H-8.01086e-05V0.899963H1.47832L18.9023 22.9V0.899963H20.6975V25.892H18.9375L1.79512 4.24396Z" fill="#222222"/>
<path d="M36.8324 25.65C35.1187 25.65 33.5556 25.2986 32.1429 24.5958C30.7303 23.8696 29.5145 22.9091 28.4956 21.7144C27.4766 20.5197 26.6892 19.1727 26.1335 17.6734C25.5777 16.1508 25.2998 14.5929 25.2998 13C25.2998 11.3367 25.5892 9.75549 26.1682 8.25623C26.7471 6.73354 27.5577 5.38655 28.5998 4.21525C29.665 3.02053 30.8924 2.08349 32.2819 1.40414C33.6945 0.701364 35.2229 0.349976 36.8671 0.349976C38.604 0.349976 40.1671 0.713078 41.5566 1.43928C42.9692 2.16548 44.185 3.13766 45.204 4.35581C46.2229 5.57396 47.0103 6.93266 47.5661 8.43192C48.1219 9.93118 48.3998 11.4539 48.3998 13C48.3998 14.6866 48.1103 16.2913 47.5313 17.814C46.9524 19.3133 46.1303 20.6603 45.065 21.855C44.0229 23.0263 42.7956 23.9516 41.3829 24.6309C39.9934 25.3103 38.4766 25.65 36.8324 25.65ZM27.0713 13C27.0713 14.429 27.3145 15.7994 27.8008 17.1112C28.2871 18.4231 28.9587 19.5944 29.8156 20.6251C30.6956 21.6559 31.7261 22.4758 32.9071 23.0848C34.1113 23.6939 35.4313 23.9984 36.8671 23.9984C38.3261 23.9984 39.6577 23.6822 40.8619 23.0497C42.0661 22.4172 43.0966 21.5739 43.9535 20.5197C44.8103 19.4655 45.4587 18.2942 45.8987 17.0058C46.3619 15.694 46.5935 14.3587 46.5935 13C46.5935 11.571 46.3503 10.2006 45.864 8.88873C45.4008 7.57687 44.7292 6.40558 43.8492 5.37484C42.9692 4.3441 41.9271 3.52419 40.7229 2.91511C39.5419 2.30604 38.2566 2.0015 36.8671 2.0015C35.385 2.0015 34.0419 2.31775 32.8377 2.95025C31.6335 3.58275 30.6029 4.42609 29.7461 5.48025C28.9124 6.53442 28.2524 7.71743 27.7661 9.02928C27.3029 10.3177 27.0713 11.6413 27.0713 13Z" fill="#222222"/>
<path d="M36.6524 5.07141C36.3883 5.21423 36.3843 5.23565 36.3603 6.28893L36.3403 7.2458L35.6202 6.76022C34.6841 6.13183 34.7041 6.14254 34.44 6.14254C34.18 6.14254 34 6.22823 33.8799 6.39961C33.7759 6.55314 33.7719 6.86734 33.8719 7.01729C33.9159 7.07799 34.48 7.47788 35.1521 7.92775L36.3563 8.7311L36.3603 10.3521V11.9695L36.2723 11.9195C36.2203 11.8909 35.5242 11.516 34.7201 11.0876C33.9159 10.6591 33.2558 10.3021 33.2478 10.2985C33.2398 10.295 33.1678 9.69869 33.0798 8.97032C32.9758 8.08128 32.9078 7.60999 32.8638 7.52787C32.7598 7.33863 32.5477 7.23152 32.2757 7.23152C32.0156 7.23152 31.8836 7.29579 31.7276 7.4993C31.6156 7.64926 31.6156 7.74566 31.7236 8.70611C31.7716 9.12028 31.8036 9.47018 31.7916 9.48089C31.7796 9.4916 31.3915 9.2988 30.9315 9.05244C30.4394 8.78823 30.0313 8.59543 29.9473 8.58114C29.7393 8.55258 29.4632 8.65255 29.3352 8.80608C29.1392 9.03102 29.1672 9.39163 29.3912 9.57729C29.4512 9.62728 29.8433 9.84865 30.2594 10.07C30.6794 10.2914 31.0395 10.4913 31.0675 10.5127C31.1035 10.5413 30.8995 10.6306 30.2314 10.8698C29.7473 11.0447 29.2952 11.2304 29.2272 11.2804C28.7751 11.6196 29.0432 12.2908 29.6313 12.2944C29.7833 12.2944 30.0713 12.2051 31.0795 11.8374C31.7716 11.5874 32.3877 11.3625 32.4477 11.3447C32.5437 11.309 32.6797 11.3732 34.116 12.1444C34.9761 12.6015 35.6802 12.9871 35.6802 12.9978C35.6802 13.0192 32.6918 14.6259 32.5877 14.6616C32.5477 14.6723 31.9916 14.4902 31.1915 14.201C30.4594 13.9368 29.8153 13.7119 29.7593 13.6976C29.6153 13.669 29.3472 13.7404 29.2192 13.844C28.9352 14.0796 28.9312 14.4759 29.2112 14.708C29.2672 14.7509 29.7193 14.9401 30.2194 15.1222C30.8715 15.3578 31.1075 15.4614 31.0715 15.4864C31.0435 15.5042 30.6794 15.7042 30.2594 15.9255C29.8433 16.1469 29.4552 16.3611 29.4032 16.404C29.0752 16.661 29.1592 17.1645 29.5593 17.3466C29.8673 17.4894 29.9713 17.4572 30.9275 16.9467C31.3915 16.6967 31.7796 16.5039 31.7916 16.5111C31.8036 16.5218 31.7716 16.8645 31.7236 17.2716C31.6236 18.1499 31.6196 18.3213 31.6996 18.457C31.8316 18.6926 32.1237 18.814 32.4197 18.7676C32.5837 18.739 32.8278 18.5605 32.8878 18.4284C32.9078 18.3784 32.9958 17.7536 33.0798 17.0395C33.1838 16.129 33.2438 15.7256 33.2838 15.6934C33.3159 15.6685 33.98 15.3043 34.7601 14.8865C35.5402 14.4724 36.2203 14.1046 36.2723 14.076L36.3603 14.0261V15.6435L36.3563 17.2644L35.1521 18.0678C34.48 18.5177 33.9159 18.9175 33.8719 18.9782C33.7719 19.1282 33.7759 19.4424 33.8799 19.5959C34 19.7673 34.18 19.853 34.44 19.853C34.7041 19.853 34.6841 19.8637 35.6202 19.2353L36.3403 18.7497L36.3603 19.7066C36.3763 20.5457 36.3883 20.6706 36.4524 20.7563C36.6884 21.0812 37.3125 21.0812 37.5485 20.7563C37.6125 20.6706 37.6245 20.5457 37.6405 19.7066L37.6605 18.7497L38.3807 19.2353C39.3168 19.8637 39.2968 19.853 39.5609 19.853C39.8209 19.853 40.0009 19.7673 40.1209 19.5959C40.225 19.4424 40.229 19.1282 40.1289 18.9782C40.0849 18.9175 39.5208 18.5177 38.8487 18.0678L37.6445 17.2644L37.6405 15.6435V14.0261L37.7326 14.076C37.7806 14.1046 38.4767 14.4795 39.2808 14.9079C40.0849 15.3364 40.745 15.6899 40.753 15.6934C40.761 15.7006 40.8331 16.2968 40.9211 17.0181C41.0051 17.7429 41.0931 18.3748 41.1131 18.4248C41.1771 18.5676 41.3651 18.7033 41.5652 18.7497C41.8252 18.8104 42.0813 18.7247 42.2453 18.5212C42.3893 18.3427 42.3893 18.2713 42.2773 17.2716C42.2293 16.8645 42.1973 16.5218 42.2093 16.5146C42.2213 16.5039 42.6053 16.6967 43.0694 16.9431C44.0256 17.4501 44.1376 17.4858 44.4416 17.3466C44.8257 17.168 44.9217 16.711 44.6297 16.429C44.5817 16.3861 44.2376 16.1862 43.8615 15.9862C43.4895 15.7898 43.1134 15.5899 43.0254 15.5399L42.8694 15.4542L43.7775 15.1222C44.6857 14.7937 44.8337 14.7151 44.9497 14.5188C45.0297 14.3795 45.0017 14.0618 44.8977 13.9332C44.8017 13.819 44.5056 13.6762 44.3616 13.6762C44.3056 13.6762 43.6575 13.8939 42.9214 14.1617C42.1853 14.4295 41.5492 14.6544 41.5092 14.6652C41.4652 14.6794 40.8931 14.3938 39.8809 13.8511C39.0208 13.3905 38.3207 13.0085 38.3207 12.9978C38.3207 12.9763 41.3091 11.3697 41.4131 11.3339C41.4572 11.3197 42.0012 11.5018 42.8334 11.8052C43.9295 12.2051 44.2176 12.298 44.3696 12.2944C44.9497 12.2873 45.2178 11.641 44.7897 11.2875C44.7337 11.2447 44.2776 11.0555 43.7775 10.8734C42.9014 10.552 42.8734 10.5413 42.9654 10.4878C43.0174 10.4592 43.3935 10.2592 43.8015 10.0415C44.2096 9.82722 44.5817 9.60943 44.6297 9.56301C44.9217 9.28452 44.8257 8.8275 44.4416 8.64898C44.1376 8.50974 44.0216 8.54187 43.0654 9.05601C42.6053 9.2988 42.2213 9.4916 42.2093 9.48446C42.1973 9.47375 42.2293 9.13099 42.2773 8.72396C42.3893 7.72424 42.3893 7.65283 42.2453 7.47431C42.0292 7.2101 41.6572 7.1494 41.3571 7.33149C41.0971 7.48859 41.0851 7.52787 40.9251 8.94176C40.8411 9.65227 40.761 10.2557 40.745 10.2771C40.729 10.2985 40.0649 10.6663 39.2688 11.0912C38.4727 11.5196 37.7806 11.8909 37.7326 11.9195L37.6405 11.9695V10.3521L37.6445 8.7311L38.8487 7.92775C39.5208 7.47788 40.0849 7.07799 40.1289 7.01729C40.229 6.86734 40.225 6.55314 40.1209 6.39961C40.0009 6.22823 39.8209 6.14254 39.5609 6.14254C39.2968 6.14254 39.3168 6.13183 38.3807 6.76022L37.6605 7.2458L37.6405 6.28893C37.6245 5.44987 37.6125 5.32491 37.5485 5.23922C37.4325 5.07855 37.2485 5 37.0004 5C36.8524 5 36.7364 5.02142 36.6524 5.07141Z" fill="#2C4495"/>
</svg>
