<svg width="24" height="24" viewBox="0 0 24 24" fill="none" xmlns="http://www.w3.org/2000/svg">
<circle cx="12" cy="12" r="11" fill="#60D669"/>
<path d="M15.743 11.4785C15.7428 10.6054 15.3959 9.76802 14.7784 9.1506C14.161 8.53318 13.3237 8.18625 12.4505 8.18607M18 11.2481C18 10.5563 17.8637 9.87129 17.5989 9.23214C17.3342 8.593 16.9461 8.01226 16.4569 7.52311C15.9677 7.03395 15.3869 6.64595 14.7477 6.38126C14.1085 6.11657 13.4235 5.98038 12.7317 5.98047M12.3457 17.3482C12.1505 17.2591 11.9559 17.1699 11.7613 17.0638C10.8068 16.5245 9.92991 15.8581 9.15479 15.0827C8.15039 14.1368 7.32514 13.0172 6.7188 11.7779C6.39444 11.1122 6.17533 10.4002 6.06929 9.66732C5.92623 8.92679 6.00829 8.16038 6.30489 7.46692C6.48787 7.16884 6.70882 6.89582 6.96221 6.65471C7.06503 6.53967 7.19003 6.44659 7.32971 6.38105C7.4694 6.31552 7.62088 6.27888 7.77507 6.27333C8.09592 6.32149 8.38684 6.4894 8.58729 6.74387C9.02593 7.23133 9.49647 7.66998 9.9592 8.13271C10.1414 8.2889 10.2553 8.51018 10.2761 8.74968C10.2683 8.95143 10.1909 9.14342 10.0568 9.29376C9.90258 9.489 9.7158 9.66732 9.53747 9.85345C9.42964 9.95732 9.34715 10.0846 9.29637 10.2254C9.24558 10.3663 9.22787 10.5169 9.24461 10.6657C9.35655 11.0139 9.54854 11.3314 9.80496 11.5918C10.1126 12.0115 10.435 12.4203 10.7714 12.8173C11.3989 13.5412 12.1423 14.1558 12.9712 14.6363C13.0859 14.7229 13.2216 14.7776 13.3644 14.7948C13.5072 14.8119 13.652 14.7909 13.784 14.7339C14.0593 14.5797 14.3047 14.376 14.5064 14.1332C14.6812 13.9206 14.9314 13.7837 15.2047 13.7512C15.4482 13.7642 15.6772 13.8683 15.8464 14.044C16.0651 14.2302 16.2519 14.4495 16.455 14.6525C16.658 14.8556 16.8207 15.002 16.9912 15.1882C17.1956 15.3687 17.3876 15.5609 17.5672 15.7648C17.7065 15.9451 17.7735 16.1715 17.754 16.398C17.6814 16.6692 17.5252 16.9106 17.3075 17.0879C17.001 17.4066 16.6285 17.6546 16.2162 17.8146C15.8039 17.9746 15.3617 18.0426 14.9203 18.014C14.0268 17.9644 13.1513 17.7381 12.3457 17.3482Z" stroke="white" stroke-width="0.976219" stroke-miterlimit="10" stroke-linecap="round"/>
</svg>
