<svg width="311" height="341" viewBox="0 0 311 341" fill="none" xmlns="http://www.w3.org/2000/svg">
<path d="M148.743 1.52191C143.611 4.5657 143.533 5.02228 143.067 27.4702L142.678 47.8637L128.681 37.5148C110.484 24.1221 110.873 24.3504 105.741 24.3504C100.686 24.3504 97.1867 26.1766 94.8539 29.8292C92.832 33.1013 92.7543 39.7976 94.6983 42.9936C95.5537 44.2872 106.518 52.8098 119.582 62.3978L142.989 79.5191L143.067 114.066V148.537L141.356 147.472C140.345 146.863 126.814 138.873 111.184 129.742C95.5537 120.61 82.7229 113.001 82.5674 112.925C82.4119 112.849 81.0122 100.141 79.3014 84.6175C77.2796 65.6699 75.9576 55.6253 75.1022 53.8752C73.0804 49.8421 68.959 47.5593 63.6711 47.5593C58.6166 47.5593 56.0504 48.929 53.0177 53.2664C50.8403 56.4624 50.8403 58.5169 52.9399 78.9865C53.8731 87.8135 54.4952 95.2708 54.2619 95.499C54.0286 95.7273 46.4856 91.6182 37.543 86.3677C27.9782 80.7366 20.0464 76.6275 18.4134 76.3232C14.3698 75.7144 9.00414 77.845 6.51575 81.1171C2.70539 85.9111 3.24972 93.5967 7.60442 97.5536C8.77086 98.6189 16.3916 103.337 24.4789 108.055C32.6439 112.773 39.6425 117.034 40.1869 117.49C40.8867 118.099 36.9209 120.002 23.9345 125.1C14.5253 128.829 5.73812 132.786 4.41616 133.851C-4.37099 141.08 0.839088 155.386 12.2702 155.462C15.2251 155.462 20.824 153.559 40.4202 145.722C53.8731 140.395 65.8485 135.601 67.0149 135.221C68.8812 134.46 71.5251 135.829 99.4418 152.266C116.161 162.006 129.847 170.224 129.847 170.452C129.847 170.909 71.7584 205.152 69.7366 205.913C68.959 206.141 58.15 202.26 42.5975 196.096C28.367 190.465 15.8472 185.671 14.7586 185.367C11.9591 184.758 6.74903 186.28 4.26064 188.487C-1.2605 193.509 -1.33826 201.956 4.10511 206.902C5.19378 207.815 13.9809 211.848 23.7012 215.729C36.3765 220.751 40.9645 222.958 40.2646 223.491C39.7203 223.871 32.6439 228.132 24.4789 232.85C16.3916 237.568 8.84862 242.134 7.83771 243.047C1.46119 248.526 3.0942 259.255 10.8704 263.136C16.8581 266.18 18.88 265.495 37.4652 254.613C46.4856 249.287 54.0286 245.178 54.2619 245.33C54.4952 245.558 53.8731 252.863 52.9399 261.538C50.9959 280.257 50.9181 283.91 52.4733 286.801C55.0395 291.824 60.7162 294.411 66.4706 293.422C69.6588 292.813 74.4024 289.008 75.5688 286.193C75.9576 285.127 77.6684 271.811 79.3014 256.592C81.3232 237.188 82.4896 228.589 83.2673 227.904C83.8894 227.371 96.7979 219.61 111.962 210.707C127.125 201.88 140.345 194.042 141.356 193.433L143.067 192.368V226.839L142.989 261.386L119.582 278.507C106.518 288.095 95.5537 296.618 94.6983 297.911C92.7543 301.107 92.832 307.804 94.8539 311.076C97.1867 314.728 100.686 316.555 105.741 316.555C110.873 316.555 110.484 316.783 128.681 303.39L142.678 293.041L143.067 313.435C143.378 331.317 143.611 333.98 144.855 335.807C149.443 342.731 161.574 342.731 166.162 335.807C167.406 333.98 167.64 331.317 167.951 313.435L168.339 293.041L182.337 303.39C200.533 316.783 200.144 316.555 205.277 316.555C210.331 316.555 213.83 314.728 216.163 311.076C218.185 307.804 218.263 301.107 216.319 297.911C215.463 296.618 204.499 288.095 191.435 278.507L168.028 261.386L167.951 226.839V192.368L169.739 193.433C170.672 194.042 184.203 202.032 199.833 211.163C215.463 220.295 228.294 227.828 228.45 227.904C228.605 228.056 230.005 240.764 231.716 256.135C233.349 271.582 235.06 285.051 235.448 286.117C236.693 289.16 240.347 292.052 244.236 293.041C249.29 294.335 254.267 292.509 257.455 288.171C260.255 284.366 260.255 282.845 258.077 261.538C257.144 252.863 256.522 245.558 256.755 245.406C256.989 245.178 264.454 249.287 273.474 254.537C292.059 265.343 294.237 266.104 300.147 263.136C307.612 259.331 309.478 249.591 303.802 243.58C302.868 242.666 296.181 238.405 288.871 234.144C281.639 229.959 274.33 225.697 272.619 224.632L269.586 222.806L287.238 215.729C304.89 208.728 307.767 207.054 310.023 202.869C311.578 199.901 311.033 193.129 309.012 190.389C307.145 187.954 301.391 184.91 298.591 184.91C297.503 184.91 284.905 189.552 270.597 195.259C256.289 200.966 243.924 205.76 243.147 205.989C242.291 206.293 231.171 200.206 211.498 188.639C194.779 178.823 181.17 170.681 181.17 170.452C181.17 169.996 239.259 135.753 241.281 134.992C242.136 134.688 252.712 138.569 268.886 145.037C290.193 153.559 295.792 155.538 298.747 155.462C310.023 155.31 315.233 141.536 306.912 134.003C305.823 133.09 296.958 129.057 287.238 125.176C270.208 118.327 269.664 118.099 271.452 116.958C272.463 116.349 279.773 112.088 287.705 107.446C295.636 102.88 302.868 98.2384 303.802 97.2492C309.478 91.3138 307.612 81.5737 300.147 77.769C294.237 74.8012 291.982 75.4861 273.396 86.4438C264.454 91.6182 256.989 95.7273 256.755 95.5751C256.522 95.3468 257.144 88.0417 258.077 79.3669C260.255 58.0604 260.255 56.5385 257.455 52.7337C253.256 47.1027 246.024 45.8091 240.192 49.6899C235.137 53.0381 234.904 53.8752 231.794 84.0087C230.161 99.1516 228.605 112.012 228.294 112.468C227.983 112.925 215.075 120.763 199.6 129.818C184.125 138.949 170.672 146.863 169.739 147.472L167.951 148.537V114.066L168.028 79.5191L191.435 62.3978C204.499 52.8098 215.463 44.2872 216.319 42.9936C218.263 39.7976 218.185 33.1013 216.163 29.8292C213.83 26.1766 210.331 24.3504 205.277 24.3504C200.144 24.3504 200.533 24.1221 182.337 37.5148L168.339 47.8637L167.951 27.4702C167.64 9.58795 167.406 6.92465 166.162 5.09836C163.907 1.6741 160.33 3.05176e-05 155.509 3.05176e-05C152.631 3.05176e-05 150.376 0.456573 148.743 1.52191Z" fill="#E3EAF6"/>
</svg>
