<svg width="24" height="24" viewBox="0 0 24 24" fill="none" xmlns="http://www.w3.org/2000/svg">
<path d="M12 23C18.0751 23 23 18.0751 23 12C23 5.92487 18.0751 1 12 1C5.92487 1 1 5.92487 1 12C1 18.0751 5.92487 23 12 23Z" fill="#039BE5"/>
<path d="M7.06183 11.8884L15.8578 8.44256C16.2661 8.29271 16.6226 8.54376 16.4903 9.17098L16.4911 9.17021L14.9934 16.3393C14.8824 16.8475 14.5852 16.9711 14.1693 16.7317L11.8886 15.0238L10.7885 16.1006C10.6669 16.2242 10.5643 16.3285 10.3286 16.3285L10.4905 13.9702L14.7175 10.0902C14.9014 9.92566 14.6764 9.83297 14.4339 9.99673L9.21027 13.3383L6.95844 12.6246C6.4696 12.467 6.45896 12.1279 7.06183 11.8884Z" fill="white"/>
</svg>
