<?xml version="1.0" encoding="UTF-8"?> <svg xmlns="http://www.w3.org/2000/svg" width="863" height="229" viewBox="0 0 863 229" fill="none"><g clip-path="url(#clip0_843_6471)"><path fill-rule="evenodd" clip-rule="evenodd" d="M0 228.79H202.602H202.607V52.3867L101.304 0.209961L0 52.3867V228.79ZM191.825 218.013H10.777V58.9554L101.304 12.3341L191.825 58.9554V218.013ZM43.0055 194.875H159.607V184.098H107.118V111.994H96.341V184.098H43.0055V194.875ZM148.825 169.344H159.602V111.994C159.602 79.8467 133.441 53.691 101.299 53.691C69.1561 53.691 43.0109 79.8467 43.0109 111.994V169.344H53.7879V111.994C53.7879 85.7901 75.0942 64.4677 101.299 64.4677C127.503 64.4677 148.825 85.7901 148.825 111.994V169.344ZM124.237 169.344H135.014V111.994C135.014 93.6412 120.077 78.7095 101.73 78.7095C83.3818 78.7095 68.4555 93.6412 68.4555 111.994V169.344H79.2326V111.994C79.2326 99.5846 89.3198 89.4866 101.73 89.4866C114.139 89.4866 124.237 99.5846 124.237 111.994V169.344ZM449.53 187.349C449.439 186.42 449.044 185.699 448.345 185.185C447.646 184.671 446.7 184.414 445.502 184.414C444.688 184.414 444.003 184.529 443.442 184.759C442.882 184.981 442.453 185.292 442.152 185.691C441.862 186.09 441.717 186.543 441.717 187.049C441.7 187.472 441.788 187.84 441.98 188.155C442.179 188.469 442.453 188.742 442.797 188.972C443.142 189.194 443.543 189.39 443.996 189.559C444.448 189.72 444.931 189.858 445.444 189.973L447.561 190.48C448.591 190.71 449.537 191.017 450.394 191.401C451.255 191.784 451.998 192.256 452.626 192.816C453.257 193.376 453.744 194.037 454.088 194.796C454.442 195.556 454.621 196.427 454.631 197.409C454.621 198.852 454.253 200.102 453.524 201.161C452.805 202.212 451.762 203.03 450.394 203.613C449.037 204.189 447.399 204.476 445.478 204.476C443.577 204.476 441.919 204.185 440.508 203.601C439.104 203.018 438.006 202.155 437.216 201.012C436.433 199.86 436.021 198.437 435.984 196.741H440.805C440.859 197.532 441.085 198.191 441.484 198.721C441.892 199.243 442.433 199.638 443.108 199.907C443.79 200.168 444.563 200.298 445.421 200.298C446.265 200.298 446.998 200.175 447.619 199.93C448.25 199.684 448.736 199.342 449.081 198.905C449.428 198.468 449.601 197.965 449.601 197.397C449.601 196.868 449.442 196.423 449.128 196.062C448.821 195.701 448.368 195.394 447.771 195.141C447.18 194.888 446.454 194.658 445.593 194.451L443.027 193.806C441.042 193.323 439.472 192.567 438.32 191.539C437.169 190.51 436.598 189.125 436.605 187.383C436.598 185.956 436.976 184.709 437.743 183.642C438.519 182.576 439.583 181.743 440.934 181.145C442.284 180.546 443.817 180.247 445.536 180.247C447.288 180.247 448.814 180.546 450.117 181.145C451.431 181.743 452.45 182.576 453.18 183.642C453.909 184.709 454.284 185.945 454.307 187.349H449.53ZM484.016 198.917C484.992 197.113 485.478 194.927 485.478 192.356C485.478 189.785 484.992 187.598 484.016 185.795C483.05 183.991 481.73 182.618 480.059 181.674C478.394 180.723 476.521 180.247 474.441 180.247C472.347 180.247 470.467 180.723 468.802 181.674C467.134 182.618 465.821 183.991 464.852 185.795C463.886 187.598 463.403 189.785 463.403 192.356C463.403 194.919 463.886 197.102 464.852 198.905C465.821 200.709 467.134 202.086 468.802 203.038C470.467 203.989 472.347 204.465 474.441 204.465C476.521 204.465 478.394 203.993 480.059 203.049C481.73 202.097 483.05 200.72 484.016 198.917ZM479.677 188.143C480.177 189.286 480.427 190.691 480.427 192.356C480.427 194.021 480.177 195.425 479.677 196.569C479.188 197.712 478.492 198.579 477.594 199.17C476.696 199.761 475.646 200.056 474.441 200.056C473.235 200.056 472.185 199.761 471.287 199.17C470.389 198.579 469.69 197.712 469.194 196.569C468.701 195.425 468.454 194.021 468.454 192.356C468.454 190.691 468.701 189.286 469.194 188.143C469.69 187 470.389 186.132 471.287 185.542C472.185 184.951 473.235 184.655 474.441 184.655C475.646 184.655 476.696 184.951 477.594 185.542C478.492 186.132 479.188 187 479.677 188.143ZM570.07 204.488C568.442 204.488 567.038 204.196 565.856 203.613C564.674 203.03 563.766 202.239 563.128 201.242C562.5 200.237 562.186 199.116 562.186 197.881C562.186 196.96 562.368 196.143 562.736 195.429C563.104 194.716 563.621 194.059 564.279 193.461C564.914 192.877 565.65 192.298 566.484 191.721C566.443 191.672 566.403 191.623 566.362 191.573C565.758 190.806 565.251 189.992 564.843 189.133C564.438 188.266 564.232 187.326 564.232 186.313C564.232 185.169 564.499 184.141 565.029 183.228C565.565 182.315 566.318 181.594 567.284 181.064C568.25 180.527 569.377 180.259 570.667 180.259C571.927 180.259 573.01 180.515 573.925 181.03C574.847 181.536 575.553 182.211 576.042 183.056C576.542 183.892 576.792 184.813 576.792 185.818C576.792 186.931 576.515 187.94 575.961 188.845C575.418 189.743 574.651 190.549 573.662 191.262L572.278 192.257L576.164 196.714C576.312 196.44 576.448 196.154 576.572 195.855C576.971 194.888 577.17 193.818 577.17 192.643H581.235C581.235 194.086 581.076 195.387 580.762 196.545C580.448 197.697 580.01 198.702 579.449 199.561C579.334 199.738 579.213 199.908 579.091 200.072L582.64 204.142H577.528L576.103 202.556C575.252 203.225 574.304 203.712 573.257 204.016C572.183 204.33 571.12 204.488 570.07 204.488ZM568.851 194.727L568.986 194.629L573.456 199.61C573.233 199.749 573 199.875 572.764 199.987C571.957 200.363 571.14 200.551 570.309 200.551C569.627 200.551 569.033 200.425 568.527 200.171C568.02 199.91 567.628 199.558 567.352 199.113C567.078 198.667 566.94 198.165 566.94 197.605C566.94 197.152 567.092 196.68 567.399 196.189C567.713 195.69 568.196 195.203 568.851 194.727ZM571.15 188.65L569.921 189.459C569.475 188.907 569.117 188.384 568.851 187.89C568.574 187.383 568.435 186.885 568.435 186.393C568.435 185.994 568.527 185.634 568.712 185.312C568.901 184.981 569.168 184.717 569.506 184.517C569.843 184.31 570.242 184.207 570.701 184.207C571.393 184.199 571.927 184.395 572.301 184.793C572.679 185.192 572.865 185.626 572.865 186.094C572.865 186.585 572.727 187.042 572.453 187.464C572.176 187.878 571.741 188.273 571.15 188.65ZM619.358 204.142H623.663V180.569H618.699V195.394H618.493L608.317 180.569H603.945V204.142H608.928V189.306H609.1L619.358 204.142ZM637.678 204.142H632.337L640.474 180.569H646.895L655.022 204.142H649.681L647.935 198.767H639.427L637.678 204.142ZM643.776 185.956L646.673 194.877H640.69L643.593 185.956H643.776ZM659.915 180.569V184.679H667.133V204.142H672.06V184.679H679.278V180.569H659.915ZM702.859 180.569H707.846V195.878C707.846 197.597 707.434 199.101 706.613 200.39C705.8 201.679 704.658 202.684 703.193 203.406C701.728 204.119 700.019 204.476 698.071 204.476C696.116 204.476 694.404 204.119 692.939 203.406C691.474 202.684 690.332 201.679 689.519 200.39C688.705 199.101 688.3 197.597 688.3 195.878V180.569H693.283V195.452C693.283 196.35 693.479 197.148 693.871 197.846C694.269 198.545 694.83 199.093 695.552 199.492C696.271 199.891 697.112 200.091 698.071 200.091C699.04 200.091 699.877 199.891 700.593 199.492C701.312 199.093 701.869 198.545 702.261 197.846C702.66 197.148 702.859 196.35 702.859 195.452V180.569ZM727.081 180.569H717.779V204.142H722.762V195.786H726.402L730.866 204.142H736.369L731.365 194.984L731.403 194.969C731.43 194.957 731.46 194.944 731.487 194.931C731.517 194.917 731.548 194.903 731.578 194.888C732.861 194.289 733.84 193.43 734.516 192.31C735.191 191.182 735.529 189.835 735.529 188.27C735.529 186.712 735.194 185.358 734.526 184.207C733.867 183.048 732.905 182.154 731.639 181.525C730.38 180.888 728.86 180.569 727.081 180.569ZM722.762 191.78H726.146C727.098 191.78 727.888 191.65 728.519 191.389C729.147 191.128 729.617 190.737 729.924 190.215C730.238 189.693 730.393 189.045 730.393 188.27C730.393 187.487 730.238 186.827 729.924 186.29C729.617 185.753 729.144 185.346 728.506 185.07C727.878 184.786 727.084 184.644 726.125 184.644H722.762V191.78ZM760.77 180.569H744.884V204.142H760.814V200.033H749.868V194.405H759.953V190.295H749.868V184.679H760.77V180.569ZM521.213 180.569V184.679H528.429V204.142H533.358V184.679H540.574V180.569H521.213ZM495.006 204.142V180.569H504.305C506.087 180.569 507.607 180.888 508.863 181.525C510.129 182.154 511.094 183.048 511.753 184.207C512.421 185.358 512.756 186.712 512.756 188.27C512.756 189.835 512.418 191.182 511.743 192.31C511.068 193.43 510.088 194.289 508.805 194.888C508.738 194.921 508.667 194.953 508.593 194.984L513.596 204.142H508.093L503.629 195.786H499.99V204.142H495.006ZM499.99 191.78H503.373C504.325 191.78 505.115 191.65 505.746 191.389C506.374 191.128 506.844 190.737 507.148 190.215C507.465 189.693 507.62 189.045 507.62 188.27C507.62 187.487 507.465 186.827 507.148 186.29C506.844 185.753 506.371 185.346 505.733 185.07C505.105 184.786 504.311 184.644 503.349 184.644H499.99V191.78ZM411.063 180.569V204.142H426.993V200.033H416.046V194.405H426.128V190.295H416.046V184.679H426.945V180.569H411.063ZM383.957 204.142V180.569H393.256C395.039 180.569 396.558 180.888 397.814 181.525C399.08 182.154 400.046 183.048 400.704 184.207C401.373 185.358 401.707 186.712 401.707 188.27C401.707 189.835 401.369 191.182 400.694 192.31C400.019 193.43 399.04 194.289 397.757 194.888C397.686 194.921 397.615 194.953 397.544 194.984L402.544 204.142H397.044L392.577 195.786H388.941V204.142H383.957ZM388.941 184.644V191.78H392.324C393.276 191.78 394.066 191.65 394.694 191.389C395.326 191.128 395.792 190.737 396.099 190.215C396.416 189.693 396.571 189.045 396.571 188.27C396.571 187.487 396.416 186.827 396.099 186.29C395.792 185.753 395.322 185.346 394.684 185.07C394.056 184.786 393.259 184.644 392.3 184.644H388.941ZM839.247 119.955H796.884L786.076 145.25H780.427L816.774 59.2964H822.916L862.946 145.25H851.034L839.247 119.955ZM836.668 114.43L817.389 73.049H816.899L799.217 114.43H836.668ZM719.103 59.2964H705.843L741.819 145.25H749.189L784.06 59.2964H777.676L749.064 130.024H748.575L719.103 59.2964ZM671.32 59.2964H682.496V145.25H671.32V59.2964ZM581.877 119.955H624.24L636.03 145.25H647.939L607.909 59.2964H601.77L565.424 145.25H571.072L581.877 119.955ZM602.385 73.049L621.664 114.43H584.21L601.892 73.049H602.385ZM502.61 145.25V59.2964H513.782V138.497H558.11V145.25H502.61ZM428.741 59.2964V145.25H484.242V138.497H439.917V59.2964H428.741ZM383.171 59.2964H394.343V145.25H383.171V59.2964ZM294.851 59.2964H281.589L317.567 145.25H324.935L359.806 59.2964H353.421L324.812 130.024H324.321L294.851 59.2964ZM359.921 194.858H281.589V189.793H359.921V194.858ZM784.668 194.858H863V189.793H784.668V194.858Z" fill="white"></path></g><defs><clipPath id="clip0_843_6471"><rect width="863" height="228.58" fill="white" transform="translate(0 0.209961)"></rect></clipPath></defs></svg> 