<svg width="24" height="24" viewBox="0 0 24 24" fill="none" xmlns="http://www.w3.org/2000/svg">
<path d="M21.7449 11.9874C21.7449 17.3712 17.3805 21.7356 11.9967 21.7356C10.2212 21.7356 8.55647 21.2609 7.12265 20.4314C6.3535 19.9865 3.47558 21.7569 2.85783 21.1263C2.32726 20.5848 4.03457 17.6642 3.64106 17.0112C2.75708 15.544 2.24857 13.8251 2.24857 11.9874C2.24857 6.60366 6.61297 2.23926 11.9967 2.23926C17.3805 2.23926 21.7449 6.60366 21.7449 11.9874Z" fill="white"/>
<path fill-rule="evenodd" clip-rule="evenodd" d="M19.7989 4.22891C18.7855 3.20886 17.5798 2.40005 16.2516 1.84932C14.9234 1.29859 13.4991 1.01689 12.0613 1.02054C6.03206 1.02054 1.12386 5.92752 1.12142 11.9592C1.12142 13.8869 1.62467 15.7683 2.58121 17.4279L1.03003 23.0953L6.82897 21.5733C8.43302 22.4465 10.2301 22.9044 12.0564 22.9052H12.0613C18.0893 22.9052 22.9975 17.9982 22.9999 11.9665C23.0041 10.5292 22.7233 9.10541 22.1739 7.77731C21.6245 6.44921 20.8172 5.24317 19.7989 4.22891ZM12.0613 21.0591H12.0576C10.4291 21.0593 8.83055 20.6211 7.4297 19.7906L7.09826 19.5932L3.65716 20.4962L4.5747 17.1416L4.35903 16.7979C3.44853 15.3484 2.96654 13.671 2.96869 11.9592C2.97113 6.94621 7.04952 2.86782 12.0649 2.86782C13.2594 2.86517 14.4425 3.09944 15.5458 3.55708C16.6491 4.01472 17.6507 4.68663 18.4926 5.53394C19.3391 6.37721 20.0099 7.37987 20.4665 8.48398C20.9231 9.58808 21.1563 10.7717 21.1527 11.9665C21.1502 16.9795 17.0718 21.0591 12.0613 21.0591ZM17.0487 14.2488C16.7745 14.1111 15.4317 13.4507 15.1807 13.3593C14.9309 13.2679 14.7493 13.2228 14.5666 13.4958C14.3838 13.7687 13.8598 14.3841 13.7002 14.5668C13.5406 14.7496 13.3809 14.7715 13.108 14.6351C12.8351 14.4986 11.9541 14.2098 10.9098 13.2789C10.097 12.5538 9.5487 11.6594 9.38908 11.3853C9.22945 11.1111 9.37202 10.9637 9.50971 10.8272C9.63278 10.7053 9.78266 10.5079 9.91913 10.3483C10.0556 10.1887 10.1007 10.0754 10.1921 9.89259C10.2835 9.70981 10.2384 9.55018 10.1689 9.41371C10.1007 9.27602 9.55358 7.93077 9.32571 7.38366C9.10516 6.8536 8.87974 6.92427 8.71158 6.91696C8.53743 6.90984 8.36313 6.90659 8.18884 6.90721C8.05024 6.91075 7.91386 6.94287 7.78826 7.00159C7.66266 7.0603 7.55054 7.14432 7.45894 7.2484C7.20793 7.52257 6.5024 8.183 6.5024 9.52825C6.5024 10.8735 7.48209 12.1737 7.61857 12.3564C7.75504 12.5392 9.54627 15.2992 12.2879 16.4836C12.9411 16.765 13.4504 16.9332 13.8464 17.0599C14.5008 17.2683 15.0966 17.2378 15.5682 17.1684C16.0934 17.0904 17.1852 16.5079 17.413 15.8694C17.6409 15.2309 17.6409 14.6838 17.5727 14.5693C17.5044 14.4547 17.3204 14.3853 17.0487 14.2488Z" fill="#60D669"/>
</svg>
