<svg width="132" height="115" viewBox="0 0 132 115" fill="none" xmlns="http://www.w3.org/2000/svg">
  <circle cx="6" cy="6" r="6" fill="#E3EAF6"/>
  <circle cx="30" cy="6" r="6" fill="#E3EAF6"/>
  <circle cx="54" cy="6" r="6" fill="#E3EAF6"/>
  <circle cx="78" cy="6" r="6" fill="#E3EAF6"/>
  <circle cx="102" cy="6" r="6" fill="#E3EAF6"/>
  <circle cx="126" cy="6" r="6" fill="#E3EAF6"/>
  <circle cx="6" cy="30" r="6" fill="#E3EAF6"/>
  <circle cx="30" cy="30" r="6" fill="#E3EAF6"/>
  <circle cx="54" cy="30" r="6" fill="#E3EAF6"/>
  <circle cx="78" cy="30" r="6" fill="#E3EAF6"/>
  <circle cx="102" cy="30" r="6" fill="#E3EAF6"/>
  <circle cx="126" cy="30" r="6" fill="#E3EAF6"/>
  <circle cx="6" cy="54" r="6" fill="#E3EAF6"/>
  <circle cx="30" cy="54" r="6" fill="#E3EAF6"/>
  <circle cx="54" cy="54" r="6" fill="#E3EAF6"/>
  <circle cx="78" cy="54" r="6" fill="#E3EAF6"/>
  <circle cx="102" cy="54" r="6" fill="#E3EAF6"/>
  <circle cx="126" cy="54" r="6" fill="#E3EAF6"/>
  <circle cx="6" cy="78" r="6" fill="#E3EAF6"/>
  <circle cx="30" cy="78" r="6" fill="#E3EAF6"/>
  <circle cx="54" cy="78" r="6" fill="#E3EAF6"/>
  <circle cx="78" cy="78" r="6" fill="#E3EAF6"/>
  <circle cx="102" cy="78" r="6" fill="#E3EAF6"/>
  <circle cx="126" cy="78" r="6" fill="#E3EAF6"/>
  <circle cx="6" cy="102" r="6" fill="#E3EAF6"/>
  <circle cx="30" cy="102" r="6" fill="#E3EAF6"/>
  <circle cx="54" cy="102" r="6" fill="#E3EAF6"/>
  <circle cx="78" cy="102" r="6" fill="#E3EAF6"/>
  <circle cx="102" cy="102" r="6" fill="#E3EAF6"/>
  <circle cx="126" cy="102" r="6" fill="#E3EAF6"/>
</svg>