<?xml version="1.0" encoding="UTF-8"?>
<svg width="100" height="100" viewBox="0 0 100 100" fill="none" xmlns="http://www.w3.org/2000/svg">
  <circle cx="5" cy="5" r="5" fill="url(#paint0_linear)"/>
  <circle cx="5" cy="25" r="5" fill="url(#paint1_linear)"/>
  <circle cx="5" cy="45" r="5" fill="url(#paint2_linear)"/>
  <circle cx="5" cy="65" r="5" fill="url(#paint3_linear)"/>
  <circle cx="5" cy="85" r="5" fill="url(#paint4_linear)"/>
  
  <circle cx="25" cy="5" r="5" fill="url(#paint5_linear)"/>
  <circle cx="25" cy="25" r="5" fill="url(#paint6_linear)"/>
  <circle cx="25" cy="45" r="5" fill="url(#paint7_linear)"/>
  <circle cx="25" cy="65" r="5" fill="url(#paint8_linear)"/>
  <circle cx="25" cy="85" r="5" fill="url(#paint9_linear)"/>
  
  <circle cx="45" cy="5" r="5" fill="url(#paint10_linear)"/>
  <circle cx="45" cy="25" r="5" fill="url(#paint11_linear)"/>
  <circle cx="45" cy="45" r="5" fill="url(#paint12_linear)"/>
  <circle cx="45" cy="65" r="5" fill="url(#paint13_linear)"/>
  <circle cx="45" cy="85" r="5" fill="url(#paint14_linear)"/>
  
  <circle cx="65" cy="5" r="5" fill="url(#paint15_linear)"/>
  <circle cx="65" cy="25" r="5" fill="url(#paint16_linear)"/>
  <circle cx="65" cy="45" r="5" fill="url(#paint17_linear)"/>
  <circle cx="65" cy="65" r="5" fill="url(#paint18_linear)"/>
  <circle cx="65" cy="85" r="5" fill="url(#paint19_linear)"/>
  
  <circle cx="85" cy="5" r="5" fill="url(#paint20_linear)"/>
  <circle cx="85" cy="25" r="5" fill="url(#paint21_linear)"/>
  <circle cx="85" cy="45" r="5" fill="url(#paint22_linear)"/>
  <circle cx="85" cy="65" r="5" fill="url(#paint23_linear)"/>
  <circle cx="85" cy="85" r="5" fill="url(#paint24_linear)"/>
  
  <defs>
    <linearGradient id="paint0_linear" x1="0" y1="0" x2="10" y2="10" gradientUnits="userSpaceOnUse">
      <stop stop-color="#97C3F9"/>
      <stop offset="1" stop-color="#93C1F9"/>
    </linearGradient>
    <linearGradient id="paint1_linear" x1="0" y1="20" x2="10" y2="30" gradientUnits="userSpaceOnUse">
      <stop stop-color="#97C3F9"/>
      <stop offset="1" stop-color="#93C1F9"/>
    </linearGradient>
    <linearGradient id="paint2_linear" x1="0" y1="40" x2="10" y2="50" gradientUnits="userSpaceOnUse">
      <stop stop-color="#97C3F9"/>
      <stop offset="1" stop-color="#93C1F9"/>
    </linearGradient>
    <linearGradient id="paint3_linear" x1="0" y1="60" x2="10" y2="70" gradientUnits="userSpaceOnUse">
      <stop stop-color="#97C3F9"/>
      <stop offset="1" stop-color="#93C1F9"/>
    </linearGradient>
    <linearGradient id="paint4_linear" x1="0" y1="80" x2="10" y2="90" gradientUnits="userSpaceOnUse">
      <stop stop-color="#97C3F9"/>
      <stop offset="1" stop-color="#93C1F9"/>
    </linearGradient>
    
    <linearGradient id="paint5_linear" x1="20" y1="0" x2="30" y2="10" gradientUnits="userSpaceOnUse">
      <stop stop-color="#97C3F9"/>
      <stop offset="1" stop-color="#93C1F9"/>
    </linearGradient>
    <linearGradient id="paint6_linear" x1="20" y1="20" x2="30" y2="30" gradientUnits="userSpaceOnUse">
      <stop stop-color="#97C3F9"/>
      <stop offset="1" stop-color="#93C1F9"/>
    </linearGradient>
    <linearGradient id="paint7_linear" x1="20" y1="40" x2="30" y2="50" gradientUnits="userSpaceOnUse">
      <stop stop-color="#97C3F9"/>
      <stop offset="1" stop-color="#93C1F9"/>
    </linearGradient>
    <linearGradient id="paint8_linear" x1="20" y1="60" x2="30" y2="70" gradientUnits="userSpaceOnUse">
      <stop stop-color="#97C3F9"/>
      <stop offset="1" stop-color="#93C1F9"/>
    </linearGradient>
    <linearGradient id="paint9_linear" x1="20" y1="80" x2="30" y2="90" gradientUnits="userSpaceOnUse">
      <stop stop-color="#97C3F9"/>
      <stop offset="1" stop-color="#93C1F9"/>
    </linearGradient>
    
    <linearGradient id="paint10_linear" x1="40" y1="0" x2="50" y2="10" gradientUnits="userSpaceOnUse">
      <stop stop-color="#97C3F9"/>
      <stop offset="1" stop-color="#93C1F9"/>
    </linearGradient>
    <linearGradient id="paint11_linear" x1="40" y1="20" x2="50" y2="30" gradientUnits="userSpaceOnUse">
      <stop stop-color="#97C3F9"/>
      <stop offset="1" stop-color="#93C1F9"/>
    </linearGradient>
    <linearGradient id="paint12_linear" x1="40" y1="40" x2="50" y2="50" gradientUnits="userSpaceOnUse">
      <stop stop-color="#97C3F9"/>
      <stop offset="1" stop-color="#93C1F9"/>
    </linearGradient>
    <linearGradient id="paint13_linear" x1="40" y1="60" x2="50" y2="70" gradientUnits="userSpaceOnUse">
      <stop stop-color="#97C3F9"/>
      <stop offset="1" stop-color="#93C1F9"/>
    </linearGradient>
    <linearGradient id="paint14_linear" x1="40" y1="80" x2="50" y2="90" gradientUnits="userSpaceOnUse">
      <stop stop-color="#97C3F9"/>
      <stop offset="1" stop-color="#93C1F9"/>
    </linearGradient>
    
    <linearGradient id="paint15_linear" x1="60" y1="0" x2="70" y2="10" gradientUnits="userSpaceOnUse">
      <stop stop-color="#97C3F9"/>
      <stop offset="1" stop-color="#93C1F9"/>
    </linearGradient>
    <linearGradient id="paint16_linear" x1="60" y1="20" x2="70" y2="30" gradientUnits="userSpaceOnUse">
      <stop stop-color="#97C3F9"/>
      <stop offset="1" stop-color="#93C1F9"/>
    </linearGradient>
    <linearGradient id="paint17_linear" x1="60" y1="40" x2="70" y2="50" gradientUnits="userSpaceOnUse">
      <stop stop-color="#97C3F9"/>
      <stop offset="1" stop-color="#93C1F9"/>
    </linearGradient>
    <linearGradient id="paint18_linear" x1="60" y1="60" x2="70" y2="70" gradientUnits="userSpaceOnUse">
      <stop stop-color="#97C3F9"/>
      <stop offset="1" stop-color="#93C1F9"/>
    </linearGradient>
    <linearGradient id="paint19_linear" x1="60" y1="80" x2="70" y2="90" gradientUnits="userSpaceOnUse">
      <stop stop-color="#97C3F9"/>
      <stop offset="1" stop-color="#93C1F9"/>
    </linearGradient>
    
    <linearGradient id="paint20_linear" x1="80" y1="0" x2="90" y2="10" gradientUnits="userSpaceOnUse">
      <stop stop-color="#97C3F9"/>
      <stop offset="1" stop-color="#93C1F9"/>
    </linearGradient>
    <linearGradient id="paint21_linear" x1="80" y1="20" x2="90" y2="30" gradientUnits="userSpaceOnUse">
      <stop stop-color="#97C3F9"/>
      <stop offset="1" stop-color="#93C1F9"/>
    </linearGradient>
    <linearGradient id="paint22_linear" x1="80" y1="40" x2="90" y2="50" gradientUnits="userSpaceOnUse">
      <stop stop-color="#97C3F9"/>
      <stop offset="1" stop-color="#93C1F9"/>
    </linearGradient>
    <linearGradient id="paint23_linear" x1="80" y1="60" x2="90" y2="70" gradientUnits="userSpaceOnUse">
      <stop stop-color="#97C3F9"/>
      <stop offset="1" stop-color="#93C1F9"/>
    </linearGradient>
    <linearGradient id="paint24_linear" x1="80" y1="80" x2="90" y2="90" gradientUnits="userSpaceOnUse">
      <stop stop-color="#97C3F9"/>
      <stop offset="1" stop-color="#93C1F9"/>
    </linearGradient>
  </defs>
</svg>
