<?xml version="1.0" encoding="UTF-8"?>
<svg width="100" height="100" viewBox="0 0 100 100" fill="none" xmlns="http://www.w3.org/2000/svg">
  <circle cx="10" cy="10" r="5" fill="url(#paint0_linear)"/>
  <circle cx="10" cy="30" r="5" fill="url(#paint1_linear)"/>
  <circle cx="10" cy="50" r="5" fill="url(#paint2_linear)"/>
  <circle cx="10" cy="70" r="5" fill="url(#paint3_linear)"/>
  <circle cx="10" cy="90" r="5" fill="url(#paint4_linear)"/>
  
  <circle cx="30" cy="10" r="5" fill="url(#paint5_linear)"/>
  <circle cx="30" cy="30" r="5" fill="url(#paint6_linear)"/>
  <circle cx="30" cy="50" r="5" fill="url(#paint7_linear)"/>
  <circle cx="30" cy="70" r="5" fill="url(#paint8_linear)"/>
  <circle cx="30" cy="90" r="5" fill="url(#paint9_linear)"/>
  
  <circle cx="50" cy="10" r="5" fill="url(#paint10_linear)"/>
  <circle cx="50" cy="30" r="5" fill="url(#paint11_linear)"/>
  <circle cx="50" cy="50" r="5" fill="url(#paint12_linear)"/>
  <circle cx="50" cy="70" r="5" fill="url(#paint13_linear)"/>
  <circle cx="50" cy="90" r="5" fill="url(#paint14_linear)"/>
  
  <circle cx="70" cy="10" r="5" fill="url(#paint15_linear)"/>
  <circle cx="70" cy="30" r="5" fill="url(#paint16_linear)"/>
  <circle cx="70" cy="50" r="5" fill="url(#paint17_linear)"/>
  <circle cx="70" cy="70" r="5" fill="url(#paint18_linear)"/>
  <circle cx="70" cy="90" r="5" fill="url(#paint19_linear)"/>
  
  <circle cx="90" cy="10" r="5" fill="url(#paint20_linear)"/>
  <circle cx="90" cy="30" r="5" fill="url(#paint21_linear)"/>
  <circle cx="90" cy="50" r="5" fill="url(#paint22_linear)"/>
  <circle cx="90" cy="70" r="5" fill="url(#paint23_linear)"/>
  <circle cx="90" cy="90" r="5" fill="url(#paint24_linear)"/>
  
  <defs>
    <linearGradient id="paint0_linear" x1="5" y1="5" x2="15" y2="15" gradientUnits="userSpaceOnUse">
      <stop stop-color="#97C3F9"/>
      <stop offset="1" stop-color="#93C1F9"/>
    </linearGradient>
    <linearGradient id="paint1_linear" x1="5" y1="25" x2="15" y2="35" gradientUnits="userSpaceOnUse">
      <stop stop-color="#97C3F9"/>
      <stop offset="1" stop-color="#93C1F9"/>
    </linearGradient>
    <linearGradient id="paint2_linear" x1="5" y1="45" x2="15" y2="55" gradientUnits="userSpaceOnUse">
      <stop stop-color="#97C3F9"/>
      <stop offset="1" stop-color="#93C1F9"/>
    </linearGradient>
    <linearGradient id="paint3_linear" x1="5" y1="65" x2="15" y2="75" gradientUnits="userSpaceOnUse">
      <stop stop-color="#97C3F9"/>
      <stop offset="1" stop-color="#93C1F9"/>
    </linearGradient>
    <linearGradient id="paint4_linear" x1="5" y1="85" x2="15" y2="95" gradientUnits="userSpaceOnUse">
      <stop stop-color="#97C3F9"/>
      <stop offset="1" stop-color="#93C1F9"/>
    </linearGradient>
    
    <linearGradient id="paint5_linear" x1="25" y1="5" x2="35" y2="15" gradientUnits="userSpaceOnUse">
      <stop stop-color="#97C3F9"/>
      <stop offset="1" stop-color="#93C1F9"/>
    </linearGradient>
    <linearGradient id="paint6_linear" x1="25" y1="25" x2="35" y2="35" gradientUnits="userSpaceOnUse">
      <stop stop-color="#97C3F9"/>
      <stop offset="1" stop-color="#93C1F9"/>
    </linearGradient>
    <linearGradient id="paint7_linear" x1="25" y1="45" x2="35" y2="55" gradientUnits="userSpaceOnUse">
      <stop stop-color="#97C3F9"/>
      <stop offset="1" stop-color="#93C1F9"/>
    </linearGradient>
    <linearGradient id="paint8_linear" x1="25" y1="65" x2="35" y2="75" gradientUnits="userSpaceOnUse">
      <stop stop-color="#97C3F9"/>
      <stop offset="1" stop-color="#93C1F9"/>
    </linearGradient>
    <linearGradient id="paint9_linear" x1="25" y1="85" x2="35" y2="95" gradientUnits="userSpaceOnUse">
      <stop stop-color="#97C3F9"/>
      <stop offset="1" stop-color="#93C1F9"/>
    </linearGradient>
    
    <linearGradient id="paint10_linear" x1="45" y1="5" x2="55" y2="15" gradientUnits="userSpaceOnUse">
      <stop stop-color="#97C3F9"/>
      <stop offset="1" stop-color="#93C1F9"/>
    </linearGradient>
    <linearGradient id="paint11_linear" x1="45" y1="25" x2="55" y2="35" gradientUnits="userSpaceOnUse">
      <stop stop-color="#97C3F9"/>
      <stop offset="1" stop-color="#93C1F9"/>
    </linearGradient>
    <linearGradient id="paint12_linear" x1="45" y1="45" x2="55" y2="55" gradientUnits="userSpaceOnUse">
      <stop stop-color="#97C3F9"/>
      <stop offset="1" stop-color="#93C1F9"/>
    </linearGradient>
    <linearGradient id="paint13_linear" x1="45" y1="65" x2="55" y2="75" gradientUnits="userSpaceOnUse">
      <stop stop-color="#97C3F9"/>
      <stop offset="1" stop-color="#93C1F9"/>
    </linearGradient>
    <linearGradient id="paint14_linear" x1="45" y1="85" x2="55" y2="95" gradientUnits="userSpaceOnUse">
      <stop stop-color="#97C3F9"/>
      <stop offset="1" stop-color="#93C1F9"/>
    </linearGradient>
    
    <linearGradient id="paint15_linear" x1="65" y1="5" x2="75" y2="15" gradientUnits="userSpaceOnUse">
      <stop stop-color="#97C3F9"/>
      <stop offset="1" stop-color="#93C1F9"/>
    </linearGradient>
    <linearGradient id="paint16_linear" x1="65" y1="25" x2="75" y2="35" gradientUnits="userSpaceOnUse">
      <stop stop-color="#97C3F9"/>
      <stop offset="1" stop-color="#93C1F9"/>
    </linearGradient>
    <linearGradient id="paint17_linear" x1="65" y1="45" x2="75" y2="55" gradientUnits="userSpaceOnUse">
      <stop stop-color="#97C3F9"/>
      <stop offset="1" stop-color="#93C1F9"/>
    </linearGradient>
    <linearGradient id="paint18_linear" x1="65" y1="65" x2="75" y2="75" gradientUnits="userSpaceOnUse">
      <stop stop-color="#97C3F9"/>
      <stop offset="1" stop-color="#93C1F9"/>
    </linearGradient>
    <linearGradient id="paint19_linear" x1="65" y1="85" x2="75" y2="95" gradientUnits="userSpaceOnUse">
      <stop stop-color="#97C3F9"/>
      <stop offset="1" stop-color="#93C1F9"/>
    </linearGradient>
    
    <linearGradient id="paint20_linear" x1="85" y1="5" x2="95" y2="15" gradientUnits="userSpaceOnUse">
      <stop stop-color="#97C3F9"/>
      <stop offset="1" stop-color="#93C1F9"/>
    </linearGradient>
    <linearGradient id="paint21_linear" x1="85" y1="25" x2="95" y2="35" gradientUnits="userSpaceOnUse">
      <stop stop-color="#97C3F9"/>
      <stop offset="1" stop-color="#93C1F9"/>
    </linearGradient>
    <linearGradient id="paint22_linear" x1="85" y1="45" x2="95" y2="55" gradientUnits="userSpaceOnUse">
      <stop stop-color="#97C3F9"/>
      <stop offset="1" stop-color="#93C1F9"/>
    </linearGradient>
    <linearGradient id="paint23_linear" x1="85" y1="65" x2="95" y2="75" gradientUnits="userSpaceOnUse">
      <stop stop-color="#97C3F9"/>
      <stop offset="1" stop-color="#93C1F9"/>
    </linearGradient>
    <linearGradient id="paint24_linear" x1="85" y1="85" x2="95" y2="95" gradientUnits="userSpaceOnUse">
      <stop stop-color="#97C3F9"/>
      <stop offset="1" stop-color="#93C1F9"/>
    </linearGradient>
  </defs>
</svg>
