<svg width="132" height="115" viewBox="0 0 132 115" fill="none" xmlns="http://www.w3.org/2000/svg">
  <g opacity="0.26">
    <circle cx="5.23" cy="5.21" r="5.21" fill="white"/>
    <circle cx="35.51" cy="5.21" r="5.21" fill="white"/>
    <circle cx="65.79" cy="5.21" r="5.21" fill="white"/>
    <circle cx="96.07" cy="5.21" r="5.21" fill="white"/>
    <circle cx="126.35" cy="5.21" r="5.21" fill="white"/>
    <circle cx="5.23" cy="31.38" r="5.21" fill="white"/>
    <circle cx="35.51" cy="31.38" r="5.21" fill="white"/>
    <circle cx="65.79" cy="31.38" r="5.21" fill="white"/>
    <circle cx="96.07" cy="31.38" r="5.21" fill="white"/>
    <circle cx="126.35" cy="31.38" r="5.21" fill="white"/>
    <circle cx="5.23" cy="57.5" r="5.21" fill="white"/>
    <circle cx="35.51" cy="57.5" r="5.21" fill="white"/>
    <circle cx="65.79" cy="57.5" r="5.21" fill="white"/>
    <circle cx="96.07" cy="57.5" r="5.21" fill="white"/>
    <circle cx="126.35" cy="57.5" r="5.21" fill="white"/>
    <circle cx="5.23" cy="83.67" r="5.21" fill="white"/>
    <circle cx="35.51" cy="83.67" r="5.21" fill="white"/>
    <circle cx="65.79" cy="83.67" r="5.21" fill="white"/>
    <circle cx="96.07" cy="83.67" r="5.21" fill="white"/>
    <circle cx="126.35" cy="83.67" r="5.21" fill="white"/>
    <circle cx="5.23" cy="109.79" r="5.21" fill="white"/>
    <circle cx="35.51" cy="109.79" r="5.21" fill="white"/>
    <circle cx="65.79" cy="109.79" r="5.21" fill="white"/>
    <circle cx="96.07" cy="109.79" r="5.21" fill="white"/>
    <circle cx="126.35" cy="109.79" r="5.21" fill="white"/>
  </g>
</svg>
