<svg width="121" height="181" viewBox="0 0 121 181" fill="none" xmlns="http://www.w3.org/2000/svg">
<path d="M78.9152 0.8078C76.1923 2.42343 76.151 2.66577 75.9035 14.581L75.6972 25.4056L68.271 19.9125C58.617 12.8038 58.8233 12.925 56.1003 12.925C53.4186 12.925 51.5621 13.8943 50.3244 15.8331C49.2517 17.5699 49.2105 21.1242 50.2419 22.8206C50.6957 23.5073 56.5129 28.031 63.444 33.1202L75.8622 42.2081L75.9035 60.5454V78.8423L74.9958 78.2768C74.4595 77.9537 67.2809 73.7127 58.9883 68.8658C50.6957 64.019 43.8884 59.9799 43.8059 59.9395C43.7233 59.8991 42.9807 53.1539 42.0731 44.9142C41.0004 34.857 40.299 29.5255 39.8452 28.5965C38.7726 26.4558 36.586 25.2441 33.7805 25.2441C31.0988 25.2441 29.7374 25.9711 28.1284 28.2734C26.9732 29.9698 26.9732 31.0603 28.0871 41.9254C28.5822 46.6107 28.9122 50.5689 28.7885 50.6901C28.6647 50.8113 24.6628 48.6302 19.9183 45.8432C14.8437 42.8543 10.6356 40.6732 9.76917 40.5117C7.62382 40.1886 4.77712 41.3195 3.45691 43.0563C1.43533 45.6009 1.72413 49.6803 4.0345 51.7806C4.65335 52.3461 8.69649 54.8503 12.9872 57.3545C17.3191 59.8587 21.0322 62.1206 21.321 62.363C21.6923 62.6861 19.5882 63.6958 12.6984 66.402C7.70634 68.3811 3.04434 70.4814 2.34298 71.0469C-2.31902 74.884 0.445175 82.4774 6.50989 82.5178C8.07765 82.5178 11.0481 81.5081 21.4448 77.3478C28.5822 74.5205 34.9357 71.9759 35.5545 71.7739C36.5447 71.37 37.9474 72.0971 52.7585 80.8214C61.6287 85.9914 68.8899 90.3536 68.8899 90.4748C68.8899 90.7171 38.0712 108.893 36.9985 109.297C36.586 109.418 30.8513 107.358 22.6 104.086C15.05 101.097 8.4077 98.5529 7.83011 98.3913C6.34487 98.0682 3.58068 98.876 2.26047 100.047C-0.668753 102.713 -0.710009 107.196 2.17795 109.822C2.75554 110.306 7.41754 112.447 12.5746 114.507C19.2994 117.173 21.7336 118.344 21.3623 118.627C21.0735 118.829 17.3191 121.091 12.9872 123.595C8.69649 126.099 4.6946 128.523 4.15827 129.007C0.775228 131.915 1.64162 137.61 5.76728 139.67C8.94403 141.286 10.0167 140.923 19.877 135.147C24.6628 132.319 28.6647 130.138 28.7885 130.219C28.9122 130.34 28.5822 134.218 28.0871 138.822C27.0557 148.758 27.0144 150.697 27.8396 152.232C29.201 154.898 32.2128 156.271 35.2657 155.746C36.9573 155.423 39.4739 153.403 40.0928 151.909C40.299 151.343 41.2067 144.275 42.0731 136.197C43.1458 125.897 43.7646 121.333 44.1772 120.97C44.5072 120.687 51.3558 116.567 59.4008 111.841C67.4459 107.156 74.4595 102.996 74.9958 102.673L75.9035 102.107V120.404L75.8622 138.741L63.444 147.829C56.5129 152.918 50.6957 157.442 50.2419 158.129C49.2105 159.825 49.2517 163.38 50.3244 165.116C51.5621 167.055 53.4186 168.025 56.1003 168.025C58.8233 168.025 58.617 168.146 68.271 161.037L75.6972 155.544L75.9035 166.369C76.0685 175.86 76.1923 177.274 76.8524 178.243C79.2865 181.919 85.7226 181.919 88.1567 178.243C88.8168 177.274 88.9406 175.86 89.1056 166.369L89.3119 155.544L96.7381 161.037C106.392 168.146 106.186 168.025 108.909 168.025C111.59 168.025 113.447 167.055 114.685 165.116C115.757 163.38 115.799 159.825 114.767 158.129C114.313 157.442 108.496 152.918 101.565 147.829L89.1469 138.741L89.1056 120.404V102.107L90.0545 102.673C90.5496 102.996 97.7282 107.237 106.021 112.084C114.313 116.931 121.121 120.929 121.203 120.97C121.286 121.05 122.028 127.796 122.936 135.954C123.802 144.154 124.71 151.303 124.916 151.868C125.576 153.484 127.515 155.019 129.578 155.544C132.26 156.231 134.9 155.261 136.592 152.959C138.077 150.939 138.077 150.132 136.922 138.822C136.427 134.218 136.097 130.34 136.221 130.259C136.344 130.138 140.305 132.319 145.091 135.106C154.951 140.842 156.106 141.246 159.242 139.67C163.202 137.651 164.193 132.481 161.181 129.29C160.686 128.805 157.138 126.543 153.26 124.282C149.423 122.06 145.545 119.798 144.637 119.233L143.028 118.263L152.393 114.507C161.758 110.791 163.285 109.903 164.481 107.681C165.307 106.106 165.018 102.511 163.945 101.057C162.955 99.7646 159.902 98.1489 158.417 98.1489C157.839 98.1489 151.156 100.613 143.564 103.642C135.973 106.671 129.413 109.216 129.001 109.337C128.547 109.499 122.647 106.267 112.209 100.128C103.339 94.9177 96.1192 90.5959 96.1192 90.4748C96.1192 90.2324 126.938 72.0567 128.011 71.6528C128.464 71.4912 134.075 73.5511 142.657 76.9843C153.961 81.5081 156.931 82.5582 158.499 82.5178C164.481 82.437 167.246 75.1264 162.831 71.1277C162.254 70.643 157.55 68.5023 152.393 66.4424C143.358 62.8073 143.069 62.6861 144.018 62.0802C144.554 61.7571 148.433 59.4952 152.641 57.0314C156.849 54.608 160.686 52.1441 161.181 51.6191C164.193 48.4686 163.202 43.2986 159.242 41.2791C156.106 39.7039 154.91 40.0674 145.05 45.8836C140.305 48.6302 136.344 50.8113 136.221 50.7305C136.097 50.6093 136.427 46.7318 136.922 42.1273C138.077 30.818 138.077 30.0101 136.592 27.9906C134.364 25.0017 130.527 24.3151 127.433 26.375C124.751 28.1522 124.628 28.5965 122.977 44.5911C122.111 52.6288 121.286 59.4548 121.121 59.6972C120.956 59.9395 114.107 64.0997 105.897 68.9062C97.687 73.7531 90.5496 77.9537 90.0545 78.2768L89.1056 78.8423V60.5454L89.1469 42.2081L101.565 33.1202C108.496 28.031 114.313 23.5073 114.767 22.8206C115.799 21.1242 115.757 17.5699 114.685 15.8331C113.447 13.8943 111.59 12.925 108.909 12.925C106.186 12.925 106.392 12.8038 96.7381 19.9125L89.3119 25.4056L89.1056 14.581C88.9406 5.0892 88.8168 3.67554 88.1567 2.70616C86.9603 0.88858 85.0625 0 82.5045 0C80.9781 0 79.7816 0.24234 78.9152 0.8078Z" fill="#E3EAF6" fill-opacity="0.8"/>
</svg>
