<svg width="168" height="210" viewBox="0 0 168 210" fill="none" xmlns="http://www.w3.org/2000/svg">
<path d="M60.2356 5.0623C58.1212 8.47942 58.2171 8.77808 64.932 22.4255L71.0534 34.8129L59.4765 32.9137C44.4456 30.4813 44.7488 30.4985 41.6861 32.0847C38.6698 33.6468 37.1506 35.8269 36.8964 38.745C36.7092 41.3381 38.749 45.3902 40.9048 46.7119C41.8182 47.2256 51.0164 48.9636 61.7993 50.6935L81.1009 53.7585L91.91 74.5157L102.649 95.251L101.296 95.1389C100.503 95.0852 89.9399 94.4607 77.7679 93.7986C65.5959 93.1364 55.5685 92.5245 55.452 92.5268C55.3355 92.5291 50.5413 85.3176 44.6842 76.5085C37.5748 65.7358 33.6567 60.1022 32.601 59.3138C30.138 57.5127 26.9674 57.4132 23.8119 59.0475C20.7957 60.6096 19.691 62.2267 19.2326 65.773C18.9289 68.3684 19.569 69.6043 27.1989 81.2685C30.5058 86.2898 33.2002 90.5834 33.1321 90.7928C33.064 91.0022 27.2827 90.8616 20.3105 90.4671C12.8485 90.0359 6.83509 90.0155 5.76578 90.3371C3.16311 91.2207 0.625015 94.1606 0.159462 96.8979C-0.620833 100.959 2.09835 105.414 5.92972 106.449C6.95768 106.729 12.9751 107.212 19.2709 107.55C25.6132 107.865 31.1171 108.265 31.5842 108.371C32.1914 108.521 30.4175 110.891 24.2563 117.972C19.8031 123.122 15.7921 128.218 15.3352 129.268C12.3436 136.332 19.9095 143.327 26.7546 139.84C28.518 138.927 31.2664 136.052 40.5185 125.281C46.8869 117.919 52.5397 111.334 53.1172 110.745C53.9938 109.711 55.9983 109.717 77.778 110.977C90.7893 111.668 101.517 112.382 101.588 112.519C101.73 112.794 77.7341 151.345 76.7647 152.427C76.3718 152.805 68.7126 153.811 57.5115 154.91C47.2653 155.921 38.3007 156.907 37.5562 157.06C35.696 157.559 33.0611 160.085 32.2636 162.181C30.5335 166.909 33.1186 172.014 37.9078 173.306C38.8419 173.519 45.342 173.23 52.3516 172.56C61.4801 171.664 64.9054 171.573 64.6537 172.11C64.4474 172.507 61.5522 177.257 58.1496 182.619C54.7933 187.956 51.7145 193.034 51.3958 193.895C49.2975 199.162 53.6146 205.111 59.464 205.042C63.9854 205.023 64.9786 203.986 72.6791 191.696C76.4026 185.704 79.6236 180.901 79.8102 180.921C80.0206 180.986 81.9252 185.572 84.0708 191.079C88.7425 202.94 89.834 205.161 91.663 206.42C94.7589 208.648 98.9525 208.45 102.078 206.076C103.791 204.725 105.436 200.97 105.255 198.916C105.155 198.155 102.028 189.616 98.2609 179.957C93.4223 167.659 91.4395 162.127 91.6902 161.474C91.8955 160.962 97.1805 152.303 103.456 142.261C109.754 132.265 115.201 123.465 115.615 122.786L116.304 121.617L127.043 142.352L137.759 163.157L129.126 180.69C124.317 190.495 120.429 199.01 120.322 200.053C120.157 202.576 122.29 206.58 124.516 207.924C127.046 209.4 129.703 209.417 132.719 207.855C135.782 206.269 135.621 206.526 142.307 192.846L147.436 182.295L154.021 194.442C159.778 205.103 160.747 206.633 162.058 207.347C166.953 210.094 174.192 206.345 174.773 200.762C174.946 199.279 174.256 197.604 168.87 186.752L162.749 174.364L174.326 176.263C189.357 178.696 189.054 178.679 192.116 177.092C195.133 175.53 196.652 173.35 196.906 170.432C197.093 167.839 195.053 163.787 192.898 162.465C191.984 161.951 182.786 160.213 172.003 158.484L152.702 155.418L141.892 134.661L131.153 113.926L132.553 114.014C133.299 114.092 143.863 114.716 156.035 115.378C168.207 116.041 178.21 116.607 178.327 116.604C178.467 116.648 183.261 123.859 189.071 132.577C194.858 141.364 200.075 148.937 200.639 149.458C202.329 150.905 205.411 151.514 208.04 150.908C211.459 150.124 213.86 147.487 214.411 143.893C214.896 140.739 214.422 139.823 206.485 127.68C203.226 122.75 200.579 118.548 200.67 118.384C200.738 118.175 206.473 118.339 213.492 118.71C227.949 119.466 229.485 119.251 232.087 115.639C235.357 111.043 233.436 104.607 228.176 102.746C227.335 102.485 222.016 101.988 216.327 101.684C210.707 101.402 205.018 101.097 203.665 100.985L201.286 100.824L209.615 91.1116C217.968 81.4449 219.163 79.5487 219.205 76.3342C219.209 74.0683 216.774 70.1627 214.714 69.1397C212.842 68.2518 208.46 68.1993 206.789 69.0645C206.139 69.4009 200.068 76.0865 193.308 83.9416C186.547 91.7967 180.663 98.5017 180.27 98.8794C179.854 99.3268 171.322 99.1017 155.978 98.2245C142.943 97.4868 132.286 96.7949 132.215 96.6576C132.072 96.3829 156.068 57.8321 157.038 56.7495C157.453 56.3021 164.973 55.368 176.64 54.2599C192.01 52.8014 195.968 52.2611 197.707 51.3021C204.389 47.7257 203.207 37.8305 195.895 35.8705C194.961 35.6577 188.414 35.9715 181.404 36.6412C169.108 37.7848 168.712 37.8157 169.424 36.5764C169.838 35.8977 172.872 31.0753 176.159 25.8317C179.47 20.634 182.34 15.6067 182.588 14.7232C184.127 9.39849 179.979 4.11628 174.338 4.13478C169.887 4.17614 168.755 5.28507 161.078 17.6204C157.353 23.4968 154.179 28.2757 153.992 28.2563C153.782 28.1911 151.877 23.6045 149.732 18.098C144.393 4.60846 143.919 3.69299 141.063 2.26951C136.803 0.180069 132.084 1.63699 129.813 5.77392C127.84 9.35012 127.961 9.92572 135.493 29.0133C139.236 38.627 142.315 46.8433 142.271 47.2141C142.228 47.5849 136.966 56.289 130.553 66.5187C124.163 76.7941 118.601 85.7123 118.234 86.3668L117.498 87.5604L106.759 66.8251L96.043 46.0199L104.677 28.4869C109.486 18.6818 113.373 10.1665 113.481 9.12403C113.645 6.60072 111.513 2.59668 109.287 1.25329C106.757 -0.222841 104.1 -0.239912 101.083 1.32224C98.0207 2.90843 98.1816 2.65094 91.4954 16.3308L86.3667 26.882L79.7814 14.7349C74.0247 4.07422 73.0558 2.54425 71.7444 1.83022C69.3319 0.46737 66.6757 0.565877 63.7987 2.05593C62.0817 2.94516 60.8782 3.91677 60.2356 5.0623Z" fill="#E3EAF6" fill-opacity="0.2"/>
</svg>
