<svg width="83" height="91" viewBox="0 0 83 91" fill="none" xmlns="http://www.w3.org/2000/svg">
<path d="M39.6967 0.406136C38.327 1.21841 38.3063 1.34025 38.1818 7.33076L38.078 12.773L34.3424 10.0113C29.4861 6.43726 29.5899 6.49818 28.2202 6.49818C26.8712 6.49818 25.9373 6.98555 25.3147 7.96027C24.7751 8.83347 24.7544 10.6205 25.2732 11.4734C25.5015 11.8186 28.4277 14.0929 31.9143 16.6516L38.161 21.2206L38.1818 30.4399V39.6389L37.7252 39.3546C37.4554 39.1922 33.8443 37.06 29.6729 34.6231C25.5015 32.1863 22.0772 30.1556 22.0357 30.1353C21.9942 30.115 21.6206 26.7238 21.164 22.5812C20.6244 17.5248 20.2716 14.8443 20.0434 14.3772C19.5038 13.301 18.4038 12.6918 16.9926 12.6918C15.6437 12.6918 14.9588 13.0573 14.1494 14.2148C13.5683 15.0677 13.5683 15.616 14.1287 21.0785C14.3777 23.4341 14.5437 25.4242 14.4815 25.4851C14.4192 25.546 12.4061 24.4494 10.0195 23.0483C7.46684 21.5455 5.35001 20.449 4.91419 20.3678C3.83501 20.2053 2.40303 20.7739 1.73893 21.6471C0.722016 22.9264 0.867289 24.9774 2.02948 26.0334C2.34078 26.3177 4.3746 27.5767 6.53295 28.8357C8.71204 30.0947 10.5798 31.2319 10.7251 31.3537C10.9119 31.5162 9.85348 32.0239 6.38767 33.3844C3.87652 34.3795 1.5314 35.4354 1.17859 35.7197C-1.16654 37.6489 0.223937 41.4666 3.27467 41.4869C4.0633 41.4869 5.55754 40.9792 10.7874 38.8876C14.3777 37.4661 17.5737 36.1868 17.885 36.0852C18.3831 35.8822 19.0887 36.2477 26.5391 40.634C31.0011 43.2332 34.6537 45.4264 34.6537 45.4873C34.6537 45.6091 19.151 54.7472 18.6114 54.9503C18.4038 55.0112 15.5191 53.9756 11.3685 52.3307C7.57061 50.828 4.22933 49.5487 3.93878 49.4674C3.19166 49.305 1.80119 49.7111 1.13708 50.3C-0.336403 51.6403 -0.357156 53.8943 1.09558 55.2143C1.38612 55.458 3.73125 56.5342 6.32541 57.5699C9.7082 58.9101 10.9326 59.499 10.7459 59.6412C10.6006 59.7427 8.71204 60.8799 6.53295 62.1389C4.3746 63.3979 2.36153 64.6163 2.09174 64.86C0.389963 66.3221 0.825783 69.1854 2.90111 70.221C4.49912 71.0333 5.03871 70.8505 9.99875 67.9467C12.4061 66.5252 14.4192 65.4286 14.4815 65.4692C14.5437 65.5302 14.3777 67.4796 14.1287 69.7946C13.6098 74.7901 13.5891 75.7648 14.0041 76.5365C14.689 77.8767 16.204 78.5671 17.7397 78.3032C18.5906 78.1407 19.8566 77.1254 20.1679 76.374C20.2716 76.0897 20.7282 72.536 21.164 68.4746C21.7036 63.2964 22.0149 61.0017 22.2225 60.819C22.3885 60.6768 25.8335 58.6055 29.8804 56.2296C33.9273 53.874 37.4554 51.7824 37.7252 51.62L38.1818 51.3357V60.5347L38.161 69.754L31.9143 74.323C28.4277 76.8817 25.5015 79.156 25.2732 79.5013C24.7544 80.3541 24.7751 82.1411 25.3147 83.0143C25.9373 83.9891 26.8712 84.4764 28.2202 84.4764C29.5899 84.4764 29.4861 84.5373 34.3424 80.9633L38.078 78.2016L38.1818 83.6438C38.2648 88.416 38.327 89.1267 38.6591 89.6141C39.8835 91.462 43.121 91.462 44.3455 89.6141C44.6775 89.1267 44.7398 88.416 44.8228 83.6438L44.9266 78.2016L48.6622 80.9633C53.5185 84.5373 53.4147 84.4764 54.7844 84.4764C56.1334 84.4764 57.0673 83.9891 57.6899 83.0143C58.2295 82.1411 58.2502 80.3541 57.7314 79.5013C57.5031 79.156 54.5769 76.8817 51.0903 74.323L44.8436 69.754L44.8228 60.5347V51.3357L45.3001 51.62C45.5492 51.7824 49.1603 53.9146 53.3317 56.3515C57.5031 58.7883 60.9274 60.7987 60.9689 60.819C61.0104 60.8596 61.384 64.2508 61.8405 68.3528C62.2764 72.4751 62.7329 76.0694 62.8367 76.3537C63.1687 77.166 64.1442 77.9376 65.1818 78.2016C66.5308 78.5468 67.859 78.0595 68.7099 76.902C69.457 75.8866 69.457 75.4805 68.8759 69.7946C68.6269 67.4796 68.4608 65.5302 68.5231 65.4895C68.5854 65.4286 70.5777 66.5252 72.9851 67.9264C77.9451 70.8099 78.5262 71.013 80.1035 70.221C82.0958 69.2057 82.5938 66.6064 81.0789 65.0022C80.8298 64.7585 79.045 63.6213 77.0942 62.4841C75.1642 61.3673 73.2134 60.2301 72.7568 59.9458L71.9474 59.4584L76.6584 57.5699C81.3694 55.7016 82.1373 55.2549 82.7391 54.138C83.1542 53.3461 83.0089 51.5387 82.4693 50.8077C81.9713 50.1579 80.4355 49.3456 79.6884 49.3456C79.3978 49.3456 76.0358 50.5843 72.2172 52.1073C68.3986 53.6303 65.0988 54.9097 64.8913 54.9706C64.663 55.0518 61.6953 53.4273 56.4447 50.3406C51.9827 47.7211 48.3509 45.5482 48.3509 45.4873C48.3509 45.3655 63.8536 36.2274 64.3932 36.0243C64.6215 35.9431 67.4439 36.9787 71.7606 38.7048C77.447 40.9792 78.9413 41.5072 79.7299 41.4869C82.7391 41.4462 84.1296 37.7707 81.909 35.7603C81.6184 35.5167 79.2526 34.4404 76.6584 33.4047C72.1134 31.5771 71.9682 31.5162 72.4455 31.2116C72.7153 31.0491 74.6661 29.912 76.7829 28.6732C78.8998 27.4548 80.8298 26.2161 81.0789 25.9521C82.5938 24.3682 82.0958 21.7689 80.1035 20.7536C78.5262 19.9616 77.9244 20.1444 72.9643 23.0686C70.5777 24.4494 68.5854 25.546 68.5231 25.5054C68.4608 25.4445 68.6269 23.495 68.8759 21.18C69.457 15.4941 69.457 15.088 68.7099 14.0726C67.5892 12.5699 65.6591 12.2247 64.1026 13.2604C62.7537 14.1539 62.6914 14.3772 61.8613 22.4187C61.4255 26.4598 61.0104 29.8917 60.9274 30.0135C60.8444 30.1353 57.3993 32.2269 53.2694 34.6435C49.1395 37.0803 45.5492 39.1922 45.3001 39.3546L44.8228 39.6389V30.4399L44.8436 21.2206L51.0903 16.6516C54.5769 14.0929 57.5031 11.8186 57.7314 11.4734C58.2502 10.6205 58.2295 8.83347 57.6899 7.96027C57.0673 6.98555 56.1334 6.49818 54.7844 6.49818C53.4147 6.49818 53.5185 6.43726 48.6622 10.0113L44.9266 12.773L44.8228 7.33076C44.7398 2.55865 44.6775 1.84792 44.3455 1.36056C43.7436 0.446747 42.789 -7.62939e-06 41.5023 -7.62939e-06C40.7344 -7.62939e-06 40.1326 0.121834 39.6967 0.406136Z" fill="#E3EAF6"/>
</svg>
