<svg width="83" height="65" viewBox="0 0 83 65" fill="none" xmlns="http://www.w3.org/2000/svg">
<path d="M39.6967 -25.5939C38.327 -24.7816 38.3063 -24.6598 38.1818 -18.6692L38.078 -13.227L34.3424 -15.9887C29.4861 -19.5627 29.5899 -19.5018 28.2202 -19.5018C26.8712 -19.5018 25.9373 -19.0145 25.3147 -18.0397C24.7751 -17.1665 24.7544 -15.3795 25.2732 -14.5266C25.5015 -14.1814 28.4277 -11.9071 31.9143 -9.3484L38.161 -4.77936L38.1818 4.43994V13.6389L37.7252 13.3546C37.4554 13.1922 33.8443 11.06 29.6729 8.62315C25.5015 6.18633 22.0772 4.15565 22.0357 4.13534C21.9942 4.11503 21.6206 0.723793 21.164 -3.4188C20.6244 -8.4752 20.2716 -11.1557 20.0434 -11.6228C19.5038 -12.699 18.4038 -13.3082 16.9926 -13.3082C15.6437 -13.3082 14.9588 -12.9427 14.1494 -11.7852C13.5683 -10.9323 13.5683 -10.384 14.1287 -4.92151C14.3777 -2.56592 14.5437 -0.575844 14.4815 -0.514923C14.4192 -0.454002 12.4061 -1.55058 10.0195 -2.95174C7.46684 -4.45445 5.35001 -5.55102 4.91419 -5.63225C3.83501 -5.7947 2.40303 -5.22611 1.73893 -4.35292C0.722016 -3.07359 0.867289 -1.0226 2.02948 0.0333557C2.34078 0.317657 4.3746 1.57668 6.53295 2.8357C8.71204 4.09473 10.5798 5.23191 10.7251 5.35375C10.9119 5.5162 9.85348 6.02388 6.38767 7.38443C3.87652 8.37947 1.5314 9.43542 1.17859 9.71972C-1.16654 11.6489 0.223937 15.4666 3.27467 15.4869C4.0633 15.4869 5.55754 14.9792 10.7874 12.8876C14.3777 11.4661 17.5737 10.1868 17.885 10.0852C18.3831 9.88217 19.0887 10.2477 26.5391 14.634C31.0011 17.2332 34.6537 19.4264 34.6537 19.4873C34.6537 19.6091 19.151 28.7472 18.6114 28.9503C18.4038 29.0112 15.5191 27.9756 11.3685 26.3307C7.57061 24.828 4.22933 23.5487 3.93878 23.4674C3.19166 23.305 1.80119 23.7111 1.13708 24.3C-0.336403 25.6403 -0.357156 27.8943 1.09558 29.2143C1.38612 29.458 3.73125 30.5342 6.32541 31.5699C9.7082 32.9101 10.9326 33.499 10.7459 33.6412C10.6006 33.7427 8.71204 34.8799 6.53295 36.1389C4.3746 37.3979 2.36153 38.6163 2.09174 38.86C0.389963 40.3221 0.825783 43.1854 2.90111 44.221C4.49912 45.0333 5.03871 44.8505 9.99875 41.9467C12.4061 40.5252 14.4192 39.4286 14.4815 39.4692C14.5437 39.5302 14.3777 41.4796 14.1287 43.7946C13.6098 48.7901 13.5891 49.7648 14.0041 50.5365C14.689 51.8767 16.204 52.5671 17.7397 52.3032C18.5906 52.1407 19.8566 51.1254 20.1679 50.374C20.2716 50.0897 20.7282 46.536 21.164 42.4746C21.7036 37.2964 22.0149 35.0017 22.2225 34.819C22.3885 34.6768 25.8335 32.6055 29.8804 30.2296C33.9273 27.874 37.4554 25.7824 37.7252 25.62L38.1818 25.3357V34.5347L38.161 43.754L31.9143 48.323C28.4277 50.8817 25.5015 53.156 25.2732 53.5013C24.7544 54.3541 24.7751 56.1411 25.3147 57.0143C25.9373 57.9891 26.8712 58.4764 28.2202 58.4764C29.5899 58.4764 29.4861 58.5373 34.3424 54.9633L38.078 52.2016L38.1818 57.6438C38.2648 62.416 38.327 63.1267 38.6591 63.6141C39.8835 65.462 43.121 65.462 44.3455 63.6141C44.6775 63.1267 44.7398 62.416 44.8228 57.6438L44.9266 52.2016L48.6622 54.9633C53.5185 58.5373 53.4147 58.4764 54.7844 58.4764C56.1334 58.4764 57.0673 57.9891 57.6899 57.0143C58.2295 56.1411 58.2502 54.3541 57.7314 53.5013C57.5031 53.156 54.5769 50.8817 51.0903 48.323L44.8436 43.754L44.8228 34.5347V25.3357L45.3001 25.62C45.5492 25.7824 49.1603 27.9146 53.3317 30.3515C57.5031 32.7883 60.9274 34.7987 60.9689 34.819C61.0104 34.8596 61.384 38.2508 61.8405 42.3528C62.2764 46.4751 62.7329 50.0694 62.8367 50.3537C63.1687 51.166 64.1442 51.9376 65.1818 52.2016C66.5308 52.5468 67.859 52.0595 68.7099 50.902C69.457 49.8866 69.457 49.4805 68.8759 43.7946C68.6269 41.4796 68.4608 39.5302 68.5231 39.4895C68.5854 39.4286 70.5777 40.5252 72.9851 41.9264C77.9451 44.8099 78.5262 45.013 80.1035 44.221C82.0958 43.2057 82.5938 40.6064 81.0789 39.0022C80.8298 38.7585 79.045 37.6213 77.0942 36.4841C75.1642 35.3673 73.2134 34.2301 72.7568 33.9458L71.9474 33.4584L76.6584 31.5699C81.3694 29.7016 82.1373 29.2549 82.7391 28.138C83.1542 27.3461 83.0089 25.5387 82.4693 24.8077C81.9713 24.1579 80.4355 23.3456 79.6884 23.3456C79.3978 23.3456 76.0358 24.5843 72.2172 26.1073C68.3986 27.6303 65.0988 28.9097 64.8913 28.9706C64.663 29.0518 61.6953 27.4273 56.4447 24.3406C51.9827 21.7211 48.3509 19.5482 48.3509 19.4873C48.3509 19.3655 63.8536 10.2274 64.3932 10.0243C64.6215 9.94309 67.4439 10.9787 71.7606 12.7048C77.447 14.9792 78.9413 15.5072 79.7299 15.4869C82.7391 15.4462 84.1296 11.7707 81.909 9.76033C81.6184 9.51665 79.2526 8.44039 76.6584 7.40474C72.1134 5.57713 71.9682 5.5162 72.4455 5.2116C72.7153 5.04914 74.6661 3.91196 76.7829 2.67325C78.8998 1.45484 80.8298 0.216118 81.0789 -0.0478668C82.5938 -1.63181 82.0958 -4.23108 80.1035 -5.24642C78.5262 -6.03838 77.9244 -5.85562 72.9643 -2.93144C70.5777 -1.55058 68.5854 -0.454002 68.5231 -0.494621C68.4608 -0.555542 68.6269 -2.505 68.8759 -4.81998C69.457 -10.5059 69.457 -10.912 68.7099 -11.9274C67.5892 -13.4301 65.6591 -13.7753 64.1026 -12.7396C62.7537 -11.8461 62.6914 -11.6228 61.8613 -3.58126C61.4255 0.459801 61.0104 3.89166 60.9274 4.0135C60.8444 4.13534 57.3993 6.22694 53.2694 8.64346C49.1395 11.0803 45.5492 13.1922 45.3001 13.3546L44.8228 13.6389V4.43994L44.8436 -4.77936L51.0903 -9.3484C54.5769 -11.9071 57.5031 -14.1814 57.7314 -14.5266C58.2502 -15.3795 58.2295 -17.1665 57.6899 -18.0397C57.0673 -19.0145 56.1334 -19.5018 54.7844 -19.5018C53.4147 -19.5018 53.5185 -19.5627 48.6622 -15.9887L44.9266 -13.227L44.8228 -18.6692C44.7398 -23.4413 44.6775 -24.1521 44.3455 -24.6394C43.7436 -25.5533 42.789 -26 41.5023 -26C40.7344 -26 40.1326 -25.8782 39.6967 -25.5939Z" fill="#E3EAF6"/>
</svg>