<?xml version="1.0" encoding="UTF-8"?>
<svg width="24" height="24" viewBox="0 0 24 24" fill="none" xmlns="http://www.w3.org/2000/svg">
  <path d="M20 15.5C18.8 15.5 17.5 15.3 16.4 14.9C16.3 14.9 16.2 14.9 16.1 14.9C15.8 14.9 15.6 15 15.4 15.2L13.2 17.4C10.4 15.9 8 13.6 6.6 10.8L8.8 8.6C9.1 8.3 9.2 7.9 9.1 7.6C8.7 6.5 8.5 5.2 8.5 4C8.5 3.5 8 3 7.5 3H4C3.5 3 3 3.5 3 4C3 13.4 10.6 21 20 21C20.5 21 21 20.5 21 20V16.5C21 16 20.5 15.5 20 15.5ZM19 12H21C21 7 17 3 12 3V5C15.9 5 19 8.1 19 12ZM15 12H17C17 9.2 14.8 7 12 7V9C13.7 9 15 10.3 15 12Z" fill="#A8ADB8"/>
</svg>
